<svg width="24" height="24" viewBox="0 0 24 24" fill="none" xmlns="http://www.w3.org/2000/svg">
<g clip-path="url(#clip0_5137_1966)">
<rect width="24" height="24" rx="12" fill="#FF4E4E"/>
<path d="M-6 0H30V12H12L-6 0Z" fill="#E03C31"/>
<path d="M-6 24H30V12H12L-6 24Z" fill="#001489"/>
<path d="M30 8H13.212L1.212 0H-6V24H1.212L13.212 16H30V8Z" fill="white"/>
<path d="M-6 24L12 12L-6 0V4.808L4.788 12L-6 19.192V24Z" fill="#FFB81C"/>
<path d="M30 9.6H12.728L-1.672 0H-6V2.884L7.672 12L-6 21.116V24H-1.672L12.728 14.4H30V9.6Z" fill="#007749"/>
</g>
<defs>
<clipPath id="clip0_5137_1966">
<rect width="24" height="24" rx="12" fill="white"/>
</clipPath>
</defs>
</svg>
