<svg width="24" height="24" viewBox="0 0 24 24" fill="none" xmlns="http://www.w3.org/2000/svg">
<g clip-path="url(#clip0_5137_1952)">
<path d="M41 0H-7V24H41V0Z" fill="#012169"/>
<path d="M-3.69482 0.877367L2.39785 3.92371L-3.69482 6.97005V7.84741H-1.94009L4.15259 4.80107L10.2453 7.84741H12V6.97005L5.90732 3.92371L12 0.877367V0H10.2453L4.15259 3.04634L-1.94009 0H-3.69482L-3.69482 0.877367Z" fill="white"/>
<path d="M-3.69482 0.585034L2.98277 3.92383H4.15259L-3.69482 7.84753H-2.525L4.15259 4.50874V3.92383L12 7.84753V7.26262L5.32241 3.92383H4.15259L12 0.00012207H10.8302L4.15259 3.33892V3.92383L-3.69482 0.00012207V0.585034Z" fill="#E4002B"/>
<path fill-rule="evenodd" clip-rule="evenodd" d="M2.84469 2.61593V0.00012207H5.46049V2.61593H12V5.23173H5.46049V7.84753H2.84469V5.23173H-3.69482V2.61593H2.84469Z" fill="white"/>
<path fill-rule="evenodd" clip-rule="evenodd" d="M3.36785 3.13909V0.00012207H4.93733V3.13909H12V4.70857H4.93733V7.84753H3.36785V4.70857H-3.69482V3.13909H3.36785Z" fill="#E4002B"/>
<path d="M4.08965 14.6296L4.51621 15.9559L5.81906 15.4625L5.04811 16.6229L6.24619 17.3339L4.85828 17.4546L5.0494 18.8346L4.08965 17.8248L3.1299 18.8346L3.32102 17.4546L1.93311 17.3339L3.13119 16.6229L2.36024 15.4625L3.66309 15.9559L4.08965 14.6296Z" fill="white"/>
<path d="M18.8364 17.0172L19.0395 17.6488L19.6599 17.4138L19.2928 17.9664L19.8633 18.3049L19.2024 18.3624L19.2934 19.0196L18.8364 18.5387L18.3793 19.0196L18.4704 18.3624L17.8094 18.3049L18.38 17.9664L18.0128 17.4138L18.6333 17.6488L18.8364 17.0172Z" fill="white"/>
<path d="M15.1495 11.1799L15.3526 11.8115L15.973 11.5765L15.6059 12.1291L16.1764 12.4677L15.5155 12.5252L15.6065 13.1823L15.1495 12.7014L14.6925 13.1823L14.7835 12.5252L14.1226 12.4677L14.6931 12.1291L14.326 11.5765L14.9464 11.8115L15.1495 11.1799Z" fill="white"/>
<path d="M18.8364 7.18604L19.0395 7.81758L19.6599 7.58263L19.2928 8.1352L19.8633 8.47376L19.2024 8.53126L19.2934 9.18839L18.8364 8.70752L18.3793 9.18839L18.4704 8.53126L17.8094 8.47376L18.38 8.1352L18.0128 7.58263L18.6333 7.81758L18.8364 7.18604Z" fill="white"/>
<path d="M22.1138 10.1969L22.317 10.8284L22.9374 10.5935L22.5703 11.1461L23.1408 11.4846L22.4799 11.5421L22.5709 12.1993L22.1138 11.7184L21.6568 12.1993L21.7478 11.5421L21.0869 11.4846L21.6574 11.1461L21.2903 10.5935L21.9107 10.8284L22.1138 10.1969Z" fill="white"/>
<path d="M20.3108 13.1549L20.4713 13.5484L20.8952 13.5795L20.5705 13.8537L20.672 14.2664L20.3108 14.0424L19.9497 14.2664L20.0511 13.8537L19.7264 13.5795L20.1503 13.5484L20.3108 13.1549Z" fill="white"/>
</g>
<defs>
<clipPath id="clip0_5137_1952">
<rect width="24" height="24" rx="12" fill="white"/>
</clipPath>
</defs>
</svg>
