<svg width="24" height="24" viewBox="0 0 24 24" fill="none" xmlns="http://www.w3.org/2000/svg">
<g clip-path="url(#clip0_5137_1857)">
<rect width="24" height="24" rx="12" fill="#FF4E4E"/>
<path d="M24 0H0V24H24V0Z" fill="#003399"/>
<path d="M12.0025 2.66675L11.7029 3.58808H10.7345L11.5181 4.15741L11.2189 5.07875L12.0025 4.50941L12.7861 5.07875L12.4869 4.15741L13.2705 3.58808H12.3021L12.0025 2.66675Z" fill="#FFCC00"/>
<path d="M12.3021 19.5881L12.0025 18.6667L11.7029 19.5881H10.7345L11.5181 20.1574L11.2189 21.0787L12.0025 20.5094L12.7861 21.0787L12.4869 20.1574L13.2705 19.5881H12.3021Z" fill="#FFCC00"/>
<path d="M4.00238 12.5094L4.78593 13.0787L4.48682 12.1574L5.27038 11.5881H4.30193L4.00238 10.6667L3.70282 11.5881H2.73438L3.51793 12.1574L3.21882 13.0787L4.00238 12.5094Z" fill="#FFCC00"/>
<path d="M8.00225 3.73877L7.7027 4.65966H6.73425L7.51781 5.22944L7.2187 6.15077L8.00225 5.58099L8.78581 6.15077L8.4867 5.22944L9.27025 4.65966H8.30181L8.00225 3.73877Z" fill="#FFCC00"/>
<path d="M5.07435 6.66675L4.7748 7.58808H3.80591L4.58991 8.15741L4.29035 9.07875L5.07435 8.50942L5.85791 9.07875L5.55835 8.15741L6.34235 7.58808H5.37346L5.07435 6.66675Z" fill="#FFCC00"/>
<path d="M5.37346 15.5881L5.07435 14.6667L4.7748 15.5881H3.80591L4.58991 16.1574L4.29035 17.0787L5.07435 16.5094L5.85791 17.0787L5.55835 16.1574L6.34235 15.5881H5.37346Z" fill="#FFCC00"/>
<path d="M8.30181 18.5161L8.00225 17.5947L7.7027 18.5161H6.73425L7.51781 19.0858L7.2187 20.0072L8.00225 19.4374L8.78581 20.0072L8.4867 19.0858L9.27025 18.5161H8.30181Z" fill="#FFCC00"/>
<path d="M21.2703 11.5881H20.3018L20.0023 10.6667L19.7027 11.5881H18.7343L19.5178 12.1574L19.2187 13.0787L20.0023 12.5094L20.7858 13.0787L20.4867 12.1574L21.2703 11.5881Z" fill="#FFCC00"/>
<path d="M16.0024 3.73877L15.7028 4.65966H14.7344L15.5179 5.22944L15.2188 6.15077L16.0024 5.58099L16.7859 6.15077L16.4868 5.22944L17.2704 4.65966H16.3019L16.0024 3.73877Z" fill="#FFCC00"/>
<path d="M18.4462 8.15741L18.1467 9.07875L18.9302 8.50942L19.7142 9.07875L19.4147 8.15741L20.1987 7.58808H19.2298L18.9302 6.66675L18.6311 7.58808H17.6622L18.4462 8.15741Z" fill="#FFCC00"/>
<path d="M19.2298 15.5881L18.9302 14.6667L18.6311 15.5881H17.6622L18.4462 16.1574L18.1467 17.0787L18.9302 16.5094L19.7142 17.0787L19.4147 16.1574L20.1987 15.5881H19.2298Z" fill="#FFCC00"/>
<path d="M16.3019 18.5161L16.0024 17.5947L15.7028 18.5161H14.7344L15.5179 19.0858L15.2188 20.0072L16.0024 19.4374L16.7859 20.0072L16.4868 19.0858L17.2704 18.5161H16.3019Z" fill="#FFCC00"/>
</g>
<defs>
<clipPath id="clip0_5137_1857">
<rect width="24" height="24" rx="12" fill="white"/>
</clipPath>
</defs>
</svg>
