<svg width="24" height="24" viewBox="0 0 24 24" fill="none" xmlns="http://www.w3.org/2000/svg">
<g clip-path="url(#clip0_5137_1872)">
<path d="M0 0H24V24H0" fill="#B31942"/>
<path d="M0 2.76929H24H0ZM24 6.46159H0H24ZM0 10.1539H24H0ZM24 13.8462H0H24ZM0 17.5385H24H0ZM24 21.2308H0H24Z" fill="black"/>
<path fill-rule="evenodd" clip-rule="evenodd" d="M24 3.69235H0V1.84619H24V3.69235ZM0 5.5385H24V7.38465H0V5.5385ZM24 11.077H0V9.23081H24V11.077ZM0 12.9231H24V14.7693H0V12.9231ZM24 18.4616H0V16.6154H24V18.4616ZM0 20.3077H24V22.1539H0V20.3077Z" fill="white"/>
<path d="M-6 0H12.3371V12.9231H-6" fill="#0A3161"/>
<path d="M0.112551 1.84619L0.548918 3.18208L-0.593506 2.35646H0.818607L-0.323816 3.18208L0.112551 1.84619Z" fill="white"/>
<path d="M0.112551 4.43079L0.548918 5.76668L-0.593506 4.94105H0.818607L-0.323816 5.76668L0.112551 4.43079Z" fill="white"/>
<path d="M0.112551 7.01538L0.548918 8.35127L-0.593506 7.52565H0.818607L-0.323816 8.35127L0.112551 7.01538Z" fill="white"/>
<path d="M0.112551 9.6001L0.548918 10.936L-0.593506 10.1104H0.818607L-0.323816 10.936L0.112551 9.6001Z" fill="white"/>
<path d="M1.64063 0.553833L2.07699 1.88972L0.93457 1.0641H2.34668L1.20426 1.88972L1.64063 0.553833Z" fill="white"/>
<path d="M1.64063 3.13843L2.07699 4.47432L0.93457 3.64869H2.34668L1.20426 4.47432L1.64063 3.13843Z" fill="white"/>
<path d="M1.64063 5.72302L2.07699 7.05891L0.93457 6.23329H2.34668L1.20426 7.05891L1.64063 5.72302Z" fill="white"/>
<path d="M1.64063 8.30774L2.07699 9.64363L0.93457 8.818H2.34668L1.20426 9.64363L1.64063 8.30774Z" fill="white"/>
<path d="M1.64063 10.8923L2.07699 12.2282L0.93457 11.4026H2.34668L1.20426 12.2282L1.64063 10.8923Z" fill="white"/>
<path d="M3.1687 1.84619L3.60507 3.18208L2.46265 2.35646H3.87476L2.73234 3.18208L3.1687 1.84619Z" fill="white"/>
<path d="M3.1687 4.43079L3.60507 5.76668L2.46265 4.94105H3.87476L2.73234 5.76668L3.1687 4.43079Z" fill="white"/>
<path d="M3.1687 7.01538L3.60507 8.35127L2.46265 7.52565H3.87476L2.73234 8.35127L3.1687 7.01538Z" fill="white"/>
<path d="M3.1687 9.6001L3.60507 10.936L2.46265 10.1104H3.87476L2.73234 10.936L3.1687 9.6001Z" fill="white"/>
<path d="M4.69678 0.553833L5.13315 1.88972L3.99072 1.0641H5.40284L4.26041 1.88972L4.69678 0.553833Z" fill="white"/>
<path d="M4.69678 3.13843L5.13315 4.47432L3.99072 3.64869H5.40284L4.26041 4.47432L4.69678 3.13843Z" fill="white"/>
<path d="M4.69678 5.72302L5.13315 7.05891L3.99072 6.23329H5.40284L4.26041 7.05891L4.69678 5.72302Z" fill="white"/>
<path d="M4.69678 8.30774L5.13315 9.64363L3.99072 8.818H5.40284L4.26041 9.64363L4.69678 8.30774Z" fill="white"/>
<path d="M4.69678 10.8923L5.13315 12.2282L3.99072 11.4026H5.40284L4.26041 12.2282L4.69678 10.8923Z" fill="white"/>
<path d="M6.22486 1.84619L6.66122 3.18208L5.5188 2.35646H6.93091L5.78849 3.18208L6.22486 1.84619Z" fill="white"/>
<path d="M6.22486 4.43079L6.66122 5.76668L5.5188 4.94105H6.93091L5.78849 5.76668L6.22486 4.43079Z" fill="white"/>
<path d="M6.22486 7.01538L6.66122 8.35127L5.5188 7.52565H6.93091L5.78849 8.35127L6.22486 7.01538Z" fill="white"/>
<path d="M6.22486 9.6001L6.66122 10.936L5.5188 10.1104H6.93091L5.78849 10.936L6.22486 9.6001Z" fill="white"/>
<path d="M7.75305 0.553833L8.18942 1.88972L7.047 1.0641H8.45911L7.31669 1.88972L7.75305 0.553833Z" fill="white"/>
<path d="M7.75305 3.13843L8.18942 4.47432L7.047 3.64869H8.45911L7.31669 4.47432L7.75305 3.13843Z" fill="white"/>
<path d="M7.75305 5.72302L8.18942 7.05891L7.047 6.23329H8.45911L7.31669 7.05891L7.75305 5.72302Z" fill="white"/>
<path d="M7.75305 8.30774L8.18942 9.64363L7.047 8.818H8.45911L7.31669 9.64363L7.75305 8.30774Z" fill="white"/>
<path d="M7.75305 10.8923L8.18942 12.2282L7.047 11.4026H8.45911L7.31669 12.2282L7.75305 10.8923Z" fill="white"/>
<path d="M9.28113 1.84619L9.7175 3.18208L8.57507 2.35646H9.98719L8.84476 3.18208L9.28113 1.84619Z" fill="white"/>
<path d="M9.28113 4.43079L9.7175 5.76668L8.57507 4.94105H9.98719L8.84476 5.76668L9.28113 4.43079Z" fill="white"/>
<path d="M9.28113 7.01538L9.7175 8.35127L8.57507 7.52565H9.98719L8.84476 8.35127L9.28113 7.01538Z" fill="white"/>
<path d="M9.28113 9.6001L9.7175 10.936L8.57507 10.1104H9.98719L8.84476 10.936L9.28113 9.6001Z" fill="white"/>
<path d="M10.8092 0.553833L11.2456 1.88972L10.1031 1.0641H11.5153L10.3728 1.88972L10.8092 0.553833Z" fill="white"/>
<path d="M10.8092 3.13843L11.2456 4.47432L10.1031 3.64869H11.5153L10.3728 4.47432L10.8092 3.13843Z" fill="white"/>
<path d="M10.8092 5.72302L11.2456 7.05891L10.1031 6.23329H11.5153L10.3728 7.05891L10.8092 5.72302Z" fill="white"/>
<path d="M10.8092 8.30774L11.2456 9.64363L10.1031 8.818H11.5153L10.3728 9.64363L10.8092 8.30774Z" fill="white"/>
<path d="M10.8092 10.8923L11.2456 12.2282L10.1031 11.4026H11.5153L10.3728 12.2282L10.8092 10.8923Z" fill="white"/>
</g>
<defs>
<clipPath id="clip0_5137_1872">
<rect width="24" height="24" rx="12" fill="white"/>
</clipPath>
</defs>
</svg>
