<svg width="24" height="24" viewBox="0 0 24 24" fill="none" xmlns="http://www.w3.org/2000/svg">
<g clip-path="url(#clip0_5137_1972)">
<rect width="24" height="24" rx="12" fill="#FF4E4E"/>
<path d="M31.2001 0H-7.19995V24H31.2001V0Z" fill="#74ACDF"/>
<path d="M38.3427 6.51196H-14.343V17.4884H38.3427V6.51196Z" fill="white"/>
<path d="M11.7921 12.0863L13.6657 16.1694C13.6657 16.1694 13.698 16.2478 13.75 16.226C13.8021 16.2043 13.7698 16.1266 13.7698 16.1266L12.2083 11.9117M12.1635 13.5002C12.1405 14.1212 12.5225 14.463 12.4724 15.0149C12.4224 15.5668 12.7247 15.8856 12.7978 16.1029C12.8709 16.3202 12.7214 16.4473 12.7846 16.4783C12.8478 16.5092 12.9868 16.3387 12.942 16.0318C12.8972 15.7249 12.6641 15.6366 12.7187 14.957C12.7734 14.2773 12.4415 14.1219 12.5212 13.5042" fill="#F6B40E"/>
<path d="M12.801 16.5185C12.7898 16.5184 12.7788 16.5159 12.7687 16.5112C12.7134 16.4842 12.7332 16.4249 12.7496 16.3795C12.7853 16.2961 12.7899 16.2026 12.7628 16.1161C12.7373 16.0494 12.706 15.985 12.6693 15.9238C12.5553 15.7176 12.3986 15.4344 12.4361 15.0182C12.4605 14.7482 12.3788 14.5302 12.2932 14.2991C12.2076 14.0679 12.1154 13.8203 12.1266 13.5029H12.1997C12.1885 13.8058 12.2768 14.0422 12.3617 14.2708C12.4506 14.5098 12.5349 14.7357 12.5092 15.0222C12.4737 15.4173 12.6238 15.6873 12.7332 15.8862C12.7724 15.9514 12.8056 16.0199 12.8326 16.091C12.8647 16.1926 12.8598 16.3023 12.8188 16.4006C12.8142 16.4144 12.8082 16.4322 12.8056 16.4434C12.8144 16.4396 12.8223 16.434 12.8287 16.4269C12.8728 16.3848 12.938 16.255 12.9057 16.0364C12.8894 15.946 12.8592 15.8587 12.8161 15.7776C12.7358 15.6057 12.6449 15.4107 12.6844 14.9537C12.7048 14.7053 12.669 14.4554 12.5797 14.2227C12.51 14.0425 12.4748 13.8508 12.4757 13.6576L11.7611 12.1008L11.827 12.0705L12.4855 13.5075V13.4989L12.558 13.5088C12.5514 13.5555 12.5481 13.6003 12.5461 13.6405L13.6986 16.151C13.7019 16.1589 13.7217 16.1951 13.7355 16.1892C13.7493 16.1832 13.7355 16.1437 13.7355 16.1371L12.1734 11.9223L12.2392 11.8966L13.8007 16.1115C13.8071 16.1279 13.8111 16.1452 13.8126 16.1628C13.8159 16.182 13.8126 16.2018 13.8033 16.2189C13.794 16.236 13.7791 16.2494 13.7612 16.257C13.7026 16.2814 13.6512 16.2346 13.6295 16.1806L12.5521 13.8335C12.5702 13.9579 12.6008 14.0801 12.6436 14.1983C12.7381 14.4417 12.7762 14.7033 12.7549 14.9636C12.7193 15.4009 12.8063 15.5866 12.8827 15.7506C12.9285 15.8382 12.9608 15.9324 12.9781 16.0298C13.0131 16.2675 12.9419 16.4401 12.8616 16.4994C12.8439 16.512 12.8227 16.5187 12.801 16.5185Z" fill="#85340A"/>
<path d="M11.7749 12L11.9435 16.4888C11.9435 16.4888 11.9435 16.5738 12.0001 16.5738C12.0568 16.5738 12.0561 16.4888 12.0561 16.4888L12.2254 12M11.576 13.4489C11.3172 14.0139 11.5391 14.4756 11.281 14.9688C11.0228 15.4621 11.1842 15.8684 11.1671 16.0943C11.1499 16.3202 10.9642 16.3834 11.0116 16.4361C11.059 16.4888 11.2514 16.3848 11.3271 16.0838C11.4028 15.7828 11.2224 15.6103 11.5319 15.0057C11.8414 14.4012 11.5978 14.1285 11.9066 13.5885" fill="#F6B40E"/>
<path d="M11.9998 16.61C11.934 16.61 11.907 16.5474 11.907 16.4888L11.8095 13.9099C11.7786 14.0319 11.7603 14.1568 11.7548 14.2826C11.748 14.5414 11.6829 14.7953 11.5645 15.0255C11.3669 15.4167 11.3729 15.6182 11.3808 15.8019C11.3901 15.9004 11.3838 15.9998 11.3623 16.0963C11.3037 16.3294 11.1727 16.4612 11.0752 16.4849C11.0595 16.4906 11.0425 16.4916 11.0263 16.4879C11.0101 16.4841 10.9952 16.4758 10.9837 16.4638C10.9428 16.4177 10.9837 16.3709 11.0172 16.3321C11.082 16.2688 11.1219 16.1845 11.1299 16.0943C11.1319 16.023 11.1277 15.9516 11.1173 15.881C11.0903 15.6465 11.0515 15.3245 11.2491 14.9543C11.3748 14.7146 11.3808 14.4822 11.392 14.2352C11.4032 13.9882 11.4111 13.7248 11.5428 13.4363L11.6086 13.4673C11.4828 13.7419 11.4736 13.9942 11.4644 14.2378C11.4552 14.4934 11.4466 14.7337 11.3129 14.9886C11.1299 15.339 11.1648 15.6472 11.1898 15.8724C11.2011 15.9476 11.2055 16.0236 11.203 16.0996C11.1938 16.206 11.1471 16.3057 11.0712 16.3808C11.0611 16.3916 11.0517 16.4031 11.0429 16.4151C11.0525 16.4156 11.0621 16.4136 11.0706 16.4091C11.1272 16.3867 11.2372 16.2912 11.2905 16.0798C11.3104 15.9902 11.3159 15.8979 11.307 15.8065C11.2991 15.6169 11.2899 15.4015 11.4987 14.9939C11.6124 14.772 11.6748 14.5273 11.6811 14.278C11.6855 14.0835 11.7266 13.8915 11.8023 13.7123L11.7364 12H11.8095L11.8694 13.5806L11.8734 13.5733L11.9392 13.6102C11.9155 13.651 11.8951 13.6912 11.8773 13.7294L11.9814 16.4895C11.9814 16.498 11.9853 16.5389 12.0011 16.5389C12.0169 16.5389 12.0209 16.4987 12.0209 16.4908L12.1882 12H12.2613L12.0927 16.4888C12.0926 16.5238 12.0805 16.5578 12.0584 16.585C12.0509 16.5929 12.0418 16.5992 12.0317 16.6035C12.0216 16.6078 12.0108 16.61 11.9998 16.61Z" fill="#85340A"/>
<path d="M11.7917 11.9137L10.2295 16.1286C10.2295 16.1286 10.1973 16.2063 10.2493 16.228C10.3013 16.2497 10.3336 16.1714 10.3336 16.1714L12.2079 12.0882M11.0528 13.1795C10.5977 13.6023 10.626 14.114 10.1966 14.4709C9.76722 14.8279 9.76327 15.2645 9.66053 15.4673C9.5578 15.6702 9.36286 15.657 9.38591 15.7235C9.40896 15.79 9.62761 15.7677 9.81266 15.5187C9.99772 15.2698 9.89696 15.0412 10.4146 14.6007C10.9322 14.1601 10.8097 13.8143 11.303 13.435" fill="#F6B40E"/>
<path d="M10.2677 16.2656C10.2566 16.2657 10.2456 16.2635 10.2355 16.259C10.223 16.2521 10.212 16.2428 10.2033 16.2316C10.1945 16.2203 10.188 16.2074 10.1844 16.1937C10.1807 16.1799 10.1798 16.1655 10.1818 16.1514C10.1838 16.1373 10.1886 16.1237 10.196 16.1115L11.0942 13.6899C11.019 13.7909 10.9541 13.8993 10.9006 14.0133C10.795 14.2499 10.6374 14.4597 10.4396 14.6271C10.1051 14.9116 10.0353 15.1039 9.97336 15.2738C9.94331 15.3679 9.89888 15.4568 9.84164 15.5372C9.69807 15.7302 9.52619 15.8007 9.4274 15.7868C9.41075 15.7861 9.39467 15.7805 9.38111 15.7708C9.36755 15.7611 9.3571 15.7477 9.35101 15.7322C9.33059 15.6736 9.38657 15.6459 9.43201 15.6242C9.51654 15.5903 9.58648 15.5279 9.62958 15.4477C9.65825 15.3821 9.68138 15.3143 9.69873 15.2448C9.76459 15.0183 9.85416 14.7074 10.1749 14.4394C10.3823 14.2662 10.4798 14.0541 10.5819 13.8302C10.684 13.6063 10.7946 13.3653 11.0271 13.1499L11.0771 13.2033C10.8552 13.4094 10.7478 13.6386 10.649 13.8618C10.5424 14.0936 10.4423 14.313 10.2216 14.4974C9.91804 14.7502 9.83176 15.0486 9.7692 15.2666C9.7506 15.3403 9.7257 15.4124 9.69478 15.4819C9.64552 15.5762 9.56461 15.6501 9.46626 15.6907C9.45264 15.6971 9.43944 15.7043 9.42674 15.7124C9.43555 15.7158 9.44497 15.7174 9.4544 15.717C9.51302 15.717 9.65197 15.6722 9.78369 15.4951C9.83626 15.4198 9.87671 15.3366 9.90355 15.2488C9.96941 15.0703 10.0425 14.8681 10.3915 14.5711C10.5817 14.4093 10.733 14.2067 10.8341 13.9784C10.9131 13.8012 11.0248 13.6406 11.1634 13.5049L11.7561 11.8993L11.822 11.925L11.2754 13.4094L11.2819 13.4041L11.3267 13.4621C11.2894 13.4911 11.2552 13.52 11.224 13.549L10.2638 16.1385C10.2638 16.1464 10.248 16.1853 10.2638 16.1919C10.2796 16.1984 10.2967 16.1616 10.3 16.155L12.1743 12.0718L12.2402 12.1021L10.3665 16.1853C10.3537 16.2172 10.3305 16.2439 10.3007 16.261C10.2901 16.2647 10.2789 16.2662 10.2677 16.2656Z" fill="#85340A"/>
<path d="M11.8405 11.8406L8.78603 15.1334C8.78603 15.1334 8.7261 15.1934 8.76561 15.2329C8.80513 15.2724 8.86506 15.2131 8.86506 15.2131L12.1579 12.1587M10.6741 12.7244C10.092 12.941 9.92272 13.4244 9.39126 13.5904C8.85979 13.7564 8.68658 14.1581 8.5147 14.3056C8.34281 14.4531 8.16697 14.3669 8.16302 14.4373C8.15907 14.5078 8.36915 14.569 8.63521 14.4116C8.90128 14.2542 8.89864 14.0027 9.54273 13.7939C10.1868 13.5851 10.2079 13.2183 10.8098 13.057" fill="#F6B40E"/>
<path d="M8.79763 15.2843C8.78683 15.2843 8.77614 15.2821 8.76619 15.2779C8.75624 15.2737 8.74722 15.2676 8.73967 15.2599C8.73085 15.2487 8.72436 15.2359 8.72057 15.2222C8.71679 15.2085 8.71578 15.1941 8.71763 15.18C8.71947 15.1659 8.72411 15.1523 8.73129 15.14C8.73847 15.1277 8.74804 15.117 8.75943 15.1084L10.5158 13.2144C10.4077 13.2787 10.3064 13.354 10.2136 13.4389C10.0263 13.6173 9.80118 13.751 9.55498 13.8301C9.13679 13.9619 8.99849 14.116 8.87665 14.2497C8.81322 14.3253 8.7386 14.3908 8.65538 14.4439C8.44858 14.5677 8.26023 14.5677 8.17725 14.5164C8.16214 14.5093 8.14939 14.498 8.14051 14.4839C8.13164 14.4698 8.12702 14.4534 8.1272 14.4367C8.13115 14.3748 8.19306 14.3708 8.24377 14.3675C8.3344 14.3686 8.42243 14.3373 8.49205 14.2793C8.54365 14.23 8.59101 14.1765 8.63364 14.1193C8.78051 13.9342 8.98268 13.6813 9.38112 13.5568C9.63994 13.4758 9.81051 13.3178 9.99096 13.1498C10.1714 12.9819 10.365 12.8021 10.6627 12.6888L10.6884 12.7547C10.4045 12.8601 10.2195 13.032 10.041 13.1979C9.86254 13.3639 9.67748 13.5358 9.40351 13.6214C9.02549 13.7393 8.83187 13.9823 8.69094 14.1594C8.64527 14.2202 8.59461 14.277 8.53947 14.3293C8.45805 14.398 8.3549 14.4356 8.24838 14.4354C8.23335 14.4357 8.21838 14.4373 8.2036 14.44C8.21046 14.4463 8.21852 14.4513 8.2273 14.4545C8.28328 14.4788 8.42817 14.4894 8.61718 14.3761C8.69459 14.3267 8.7639 14.2656 8.82265 14.195C8.95042 14.0547 9.09596 13.896 9.53259 13.7551C9.76984 13.6788 9.98684 13.5501 10.1675 13.3784C10.3074 13.2449 10.4711 13.139 10.6502 13.0662L11.8145 11.8103L11.8685 11.8604L10.7931 13.0194H10.801L10.8201 13.0899C10.774 13.1024 10.7319 13.1163 10.6917 13.1307L8.81212 15.1611C8.80619 15.1677 8.7805 15.1987 8.7917 15.2098C8.8029 15.221 8.83385 15.1954 8.83912 15.1901L12.1313 12.1317L12.1807 12.185L8.88785 15.2401C8.8637 15.2647 8.83186 15.2803 8.79763 15.2843Z" fill="#85340A"/>
<path d="M12.2836 13.6076C12.3133 14.2003 12.6518 14.4677 12.5853 15.011C12.7308 14.5816 12.3798 14.2484 12.3996 13.6135M11.8958 12.0494L13.1793 14.8529L12.1039 11.9631" fill="#85340A"/>
<path d="M11.6468 13.5937C11.4459 14.1561 11.6573 14.5296 11.3879 15.0064C11.6876 14.6646 11.49 14.2227 11.7515 13.6438M11.8832 12.0059L11.9998 15.0874L12.1124 12.0052" fill="#85340A"/>
<path d="M11.0644 13.3376C10.664 13.7782 10.716 14.2062 10.288 14.5434C10.695 14.3426 10.6831 13.8585 11.1441 13.4239M11.8942 11.9612L10.8148 14.8516L12.0977 12.0475" fill="#85340A"/>
<path d="M10.6234 12.8772C10.084 13.1334 9.96941 13.5464 9.44189 13.6932C9.89433 13.6636 10.0675 13.2111 10.6616 12.9866M11.9129 11.923L9.81333 14.1812L12.0716 12.0817" fill="#85340A"/>
<path d="M11.9137 11.7917L7.83053 13.6654C7.83053 13.6654 7.75216 13.6977 7.77389 13.7497C7.79563 13.8017 7.87334 13.7694 7.87334 13.7694L12.0882 12.208M10.4997 12.1632C9.87869 12.1401 9.53689 12.5221 8.98501 12.4721C8.43312 12.422 8.11438 12.7243 7.89705 12.7974C7.67972 12.8705 7.55261 12.721 7.52166 12.7842C7.49071 12.8474 7.66128 12.9864 7.96817 12.9416C8.27507 12.8968 8.36332 12.6637 9.04296 12.7184C9.72261 12.773 9.87803 12.4411 10.4958 12.5208" fill="#F6B40E"/>
<path d="M7.82506 13.8162C7.80733 13.8174 7.78967 13.8131 7.77455 13.8038C7.75942 13.7944 7.74761 13.7806 7.74076 13.7642C7.7164 13.7049 7.76315 13.6542 7.81716 13.6325L10.1643 12.5551C10.0397 12.5732 9.91723 12.6038 9.7988 12.6466C9.55707 12.7394 9.29753 12.7766 9.03946 12.7553C8.60217 12.7204 8.41646 12.8066 8.25247 12.883C8.16481 12.9289 8.07064 12.9611 7.97324 12.9785C7.73484 13.0134 7.56295 12.9423 7.50368 12.8619C7.49251 12.8496 7.48514 12.8342 7.48246 12.8177C7.47977 12.8013 7.48188 12.7844 7.48853 12.7691C7.51553 12.7138 7.5748 12.7335 7.62025 12.75C7.70368 12.7856 7.7971 12.7903 7.88367 12.7632C7.95038 12.7377 8.01473 12.7064 8.07598 12.6696C8.28211 12.5551 8.5653 12.399 8.98151 12.4365C9.25087 12.4609 9.46951 12.3792 9.70067 12.2936C9.93183 12.208 10.1795 12.1158 10.4969 12.127V12.2001C10.1946 12.1889 9.95751 12.2771 9.72899 12.3621C9.48993 12.451 9.26404 12.5353 8.97822 12.5096C8.58308 12.474 8.3124 12.6242 8.11351 12.7335C8.04842 12.7729 7.97986 12.8061 7.9087 12.833C7.80713 12.8651 7.69747 12.8602 7.59917 12.8191C7.58534 12.8145 7.56756 12.8086 7.55636 12.806C7.56011 12.8148 7.56573 12.8226 7.57283 12.829C7.61498 12.8731 7.74471 12.9377 7.96336 12.9061C8.05375 12.8898 8.14107 12.8596 8.22218 12.8165C8.39407 12.7362 8.589 12.6453 9.04605 12.6848C9.29448 12.7049 9.54426 12.6691 9.77707 12.5801C9.95734 12.5107 10.1489 12.4754 10.3421 12.476L11.899 11.7615L11.9293 11.8273L10.4923 12.4859H10.5008L10.491 12.5583C10.4442 12.5518 10.3994 12.5485 10.3592 12.5465L7.84877 13.699C7.84087 13.7023 7.80465 13.7214 7.81057 13.7359C7.8165 13.7504 7.85601 13.7359 7.8626 13.7359L12.0775 12.1737L12.1031 12.2396L7.88828 13.8011C7.87183 13.8075 7.85453 13.8115 7.83692 13.8129L7.82506 13.8162Z" fill="#85340A"/>
<path d="M11.9996 11.7747L7.51074 11.9433C7.51074 11.9433 7.42578 11.9433 7.42578 11.9999C7.42578 12.0565 7.51074 12.0559 7.51074 12.0559L11.9996 12.2251M10.5507 11.5758C9.98565 11.317 9.52399 11.5389 9.03072 11.2807C8.53745 11.0226 8.13111 11.1839 7.90522 11.1668C7.67933 11.1497 7.61611 10.964 7.56342 11.0114C7.51074 11.0588 7.61479 11.2511 7.91576 11.3268C8.21673 11.4026 8.38927 11.2221 8.99384 11.5317C9.59841 11.8412 9.87106 11.5975 10.4111 11.9064" fill="#F6B40E"/>
<path d="M11.9997 12.2634L7.51085 12.0948C7.47596 12.094 7.44225 12.082 7.4147 12.0605C7.40654 12.0527 7.40009 12.0433 7.39578 12.0329C7.39147 12.0225 7.38939 12.0112 7.38967 11.9999C7.38967 11.9341 7.45224 11.9071 7.51085 11.9071L10.0898 11.8096C9.96775 11.7787 9.84285 11.7604 9.71706 11.755C9.45829 11.7481 9.20438 11.6831 8.9742 11.5646C8.583 11.3671 8.38148 11.373 8.19774 11.3809C8.09925 11.3902 7.99992 11.384 7.90336 11.3625C7.67022 11.3038 7.53851 11.1728 7.51414 11.0753C7.50868 11.0596 7.50782 11.0426 7.51167 11.0264C7.51552 11.0102 7.52392 10.9954 7.53588 10.9838C7.58198 10.9429 7.62873 10.9838 7.66759 11.0174C7.73083 11.0821 7.81517 11.1221 7.90533 11.13C7.97669 11.132 8.04808 11.1278 8.11871 11.1175C8.35316 11.0905 8.67455 11.0516 9.04532 11.2492C9.28504 11.375 9.51752 11.3809 9.76448 11.3921C10.0114 11.4033 10.2749 11.4112 10.5633 11.5429L10.5324 11.6088C10.2577 11.483 10.0055 11.4738 9.76185 11.4645C9.50632 11.4553 9.26594 11.4468 9.01107 11.3131C8.66072 11.13 8.3525 11.1649 8.12727 11.1899C8.0521 11.2012 7.97604 11.2056 7.90007 11.2031C7.79367 11.1939 7.69399 11.1473 7.61886 11.0714C7.60802 11.0612 7.59659 11.0518 7.58461 11.043C7.58442 11.0526 7.58645 11.0621 7.59054 11.0707C7.61293 11.1273 7.70842 11.2373 7.91982 11.2907C8.00949 11.3105 8.10173 11.3161 8.19313 11.3071C8.38346 11.2992 8.59815 11.29 9.00646 11.4988C9.22811 11.6126 9.47258 11.675 9.72167 11.6812C9.91618 11.6857 10.1081 11.7268 10.2874 11.8024L11.9997 11.7365V11.8096L10.4191 11.8682L10.4263 11.8722L10.3895 11.938C10.3486 11.9143 10.3085 11.8939 10.2703 11.8761L7.51019 11.9802C7.50163 11.9802 7.4608 11.9841 7.4608 11.9999C7.46032 12.001 7.46008 12.0021 7.46008 12.0032C7.46008 12.0044 7.46032 12.0055 7.4608 12.0065C7.47426 12.0154 7.49011 12.02 7.50624 12.0197L11.9997 12.1883V12.2634Z" fill="#85340A"/>
<path d="M12.0863 11.7918L7.87144 10.2297C7.87144 10.2297 7.79373 10.1974 7.772 10.2494C7.75026 10.3014 7.82864 10.3337 7.82864 10.3337L11.9118 12.208M10.8205 11.0529C10.3977 10.5978 9.88601 10.6261 9.52907 10.1967C9.17212 9.76734 8.73549 9.76339 8.53265 9.66066C8.32981 9.55792 8.34298 9.36298 8.27646 9.38603C8.20995 9.40908 8.23234 9.62773 8.48128 9.81279C8.73022 9.99784 8.95874 9.89708 9.39933 10.4147C9.83991 10.9324 10.1857 10.8099 10.565 11.3031" fill="#F6B40E"/>
<path d="M11.8984 12.2409L7.81527 10.3673C7.78336 10.3545 7.75669 10.3313 7.73954 10.3014C7.73493 10.2911 7.73254 10.2799 7.73254 10.2685C7.73254 10.2572 7.73493 10.246 7.73954 10.2356C7.74644 10.2231 7.75578 10.2122 7.76701 10.2034C7.77824 10.1946 7.79113 10.1882 7.8049 10.1845C7.81867 10.1808 7.83304 10.1799 7.84716 10.1819C7.86128 10.1839 7.87485 10.1887 7.88706 10.1961L10.3086 11.0944C10.2076 11.0191 10.0993 10.9542 9.98527 10.9007C9.74866 10.7951 9.53888 10.6375 9.37148 10.4397C9.08697 10.1052 8.89467 10.0354 8.72476 9.97348C8.63068 9.94343 8.54182 9.899 8.46133 9.84176C8.26837 9.6982 8.1979 9.52631 8.21173 9.42752C8.21249 9.41087 8.21805 9.39479 8.22775 9.38123C8.23746 9.36768 8.25088 9.35722 8.26639 9.35113C8.32501 9.33071 8.35267 9.38669 8.3744 9.43213C8.40822 9.51666 8.4707 9.5866 8.5509 9.6297C8.61657 9.65725 8.68441 9.67927 8.75374 9.69556C8.98029 9.76142 9.29113 9.85098 9.55917 10.1717C9.73237 10.3792 9.94443 10.4766 10.1683 10.5787C10.3923 10.6808 10.6333 10.7914 10.8487 11.0239L10.7953 11.074C10.5892 10.852 10.36 10.7447 10.1367 10.6459C9.90492 10.5392 9.68562 10.4391 9.50122 10.2185C9.24832 9.91487 8.94999 9.82859 8.732 9.76603C8.65822 9.74743 8.58617 9.72253 8.51665 9.69161C8.42236 9.64235 8.34844 9.56144 8.30789 9.46309C8.3013 9.44991 8.29274 9.43279 8.28681 9.42357C8.28275 9.4322 8.28094 9.44172 8.28154 9.45123C8.28154 9.51182 8.32633 9.6488 8.50348 9.78052C8.57882 9.83309 8.66193 9.87354 8.74979 9.90038C8.92826 9.96623 9.13044 10.0393 9.42746 10.3884C9.58926 10.5786 9.79185 10.7298 10.0202 10.8309C10.1973 10.9099 10.358 11.0216 10.4937 11.1602L12.0993 11.7529L12.0736 11.8188L10.5905 11.2755L10.5958 11.2821L10.5378 11.3268C10.5088 11.2895 10.4799 11.2553 10.4509 11.2241L7.86137 10.2639C7.85347 10.2606 7.81462 10.2488 7.80803 10.2639C7.80144 10.2791 7.83832 10.2975 7.84491 10.3001L11.928 12.1744L11.8984 12.2409Z" fill="#85340A"/>
<path d="M12.1594 11.8405L8.86657 8.78603C8.86657 8.78603 8.80664 8.7261 8.76712 8.76561C8.72761 8.80512 8.78688 8.86505 8.78688 8.86505L11.8413 12.1579M11.2756 10.6741C11.0589 10.092 10.5756 9.92272 10.4096 9.39125C10.2436 8.85979 9.84191 8.68658 9.69439 8.5147C9.54687 8.34281 9.63314 8.16697 9.56268 8.16302C9.49221 8.15907 9.43096 8.36915 9.58836 8.63521C9.74576 8.90128 9.99733 8.89864 10.2061 9.54272C10.4149 10.1868 10.7817 10.2079 10.943 10.8098" fill="#F6B40E"/>
<path d="M11.8139 12.1837L8.7588 8.89081C8.73405 8.86605 8.71868 8.83346 8.71533 8.79861C8.71533 8.78781 8.71748 8.77712 8.72166 8.76717C8.72585 8.75722 8.73198 8.7482 8.7397 8.74066C8.75375 8.72707 8.77192 8.71854 8.79135 8.71639C8.81078 8.71424 8.83037 8.71861 8.84705 8.7288C8.86314 8.73726 8.87799 8.7479 8.89117 8.76041L10.7846 10.5168C10.7204 10.4087 10.6454 10.3074 10.5606 10.2145C10.3823 10.0273 10.2486 9.80217 10.1695 9.55597C10.0377 9.13777 9.88364 8.99947 9.74995 8.87764C9.6743 8.8142 9.60878 8.73958 9.55567 8.65636C9.43186 8.44957 9.4312 8.26122 9.48323 8.17824C9.49024 8.16307 9.5015 8.15027 9.51564 8.14139C9.52979 8.1325 9.54621 8.12792 9.56291 8.12818C9.62482 8.13214 9.62877 8.19404 9.63206 8.24475C9.63133 8.33532 9.66258 8.42325 9.72031 8.49303C9.7696 8.54463 9.82313 8.59199 9.88034 8.63463C10.0654 8.78149 10.3183 8.98367 10.4428 9.3821C10.5238 9.64092 10.6818 9.81149 10.8498 9.99194C11.0177 10.1724 11.1975 10.366 11.3108 10.6637L11.2449 10.6894C11.1395 10.4055 10.9676 10.2205 10.8017 10.042C10.6357 9.86352 10.4638 9.67846 10.3782 9.40384C10.2603 9.02648 10.0173 8.83286 9.84017 8.69192C9.77941 8.64626 9.72258 8.59559 9.67026 8.54045C9.60156 8.45904 9.56399 8.35589 9.56423 8.24936C9.56388 8.23434 9.56234 8.21936 9.55962 8.20458C9.55327 8.21144 9.54834 8.2195 9.54513 8.22829C9.52076 8.28427 9.51023 8.42915 9.6235 8.61816C9.67297 8.69574 9.7343 8.76508 9.80527 8.82364C9.94488 8.9514 10.1036 9.09694 10.2445 9.53358C10.3208 9.77082 10.4495 9.98782 10.6212 10.1684C10.7547 10.3083 10.8606 10.4721 10.9334 10.6512L12.1893 11.8155L12.1313 11.8682L10.9723 10.7928V10.8007L10.9018 10.8198C10.8893 10.7737 10.8754 10.7315 10.861 10.6913L8.83848 8.81244C8.8319 8.80651 8.80095 8.78083 8.78975 8.79202C8.77856 8.80322 8.80424 8.83417 8.80951 8.83944L11.8679 12.1316L11.8139 12.1837Z" fill="#85340A"/>
<path d="M10.3922 12.2838C9.79947 12.3134 9.53209 12.6519 8.98877 12.5854C9.41816 12.7309 9.75139 12.3799 10.3863 12.3997M11.9504 11.8959L9.14683 13.1794L12.0366 12.104" fill="#85340A"/>
<path d="M10.406 11.647C9.84357 11.4494 9.47016 11.6575 8.99336 11.3882C9.33516 11.6878 9.77706 11.4903 10.3559 11.7517M11.9938 11.8834L8.91235 12L11.9945 12.1126" fill="#85340A"/>
<path d="M10.6622 11.0641C10.2217 10.6636 9.79359 10.7157 9.4564 10.2876C9.65727 10.6946 10.1413 10.6827 10.576 11.1437M12.0387 11.8939L9.14819 10.8145L11.9524 12.0974" fill="#85340A"/>
<path d="M11.1227 10.6235C10.8665 10.0841 10.4536 9.96953 10.3067 9.44202C10.3364 9.89445 10.7888 10.0677 11.0134 10.6617M12.077 11.913L9.81873 9.81345L11.9182 12.0717" fill="#85340A"/>
<path d="M12.2074 11.9138L10.3338 7.83065C10.3338 7.83065 10.3015 7.75228 10.2495 7.77402C10.1975 7.79575 10.2297 7.87346 10.2297 7.87346L11.7912 12.0883M11.836 10.4998C11.859 9.87881 11.4771 9.53701 11.5271 8.98513C11.5772 8.43325 11.2749 8.1145 11.2018 7.89717C11.1287 7.67984 11.2782 7.55274 11.215 7.52178C11.1517 7.49083 11.0128 7.6614 11.0576 7.9683C11.1023 8.27519 11.3355 8.36344 11.2808 9.04308C11.2262 9.72273 11.5581 9.87815 11.4784 10.4959" fill="#F6B40E"/>
<path d="M11.757 12.0988L10.1955 7.88399C10.189 7.86754 10.1851 7.85023 10.1836 7.83262C10.1803 7.81343 10.1836 7.79367 10.1929 7.77658C10.2022 7.75948 10.2171 7.74604 10.235 7.73844C10.2943 7.71407 10.345 7.76083 10.3667 7.81484L11.4441 10.162C11.426 10.0374 11.3953 9.91494 11.3526 9.79648C11.2597 9.55477 11.2225 9.29521 11.2439 9.03714C11.2795 8.59985 11.1926 8.41414 11.1162 8.24686C11.0703 8.1592 11.0381 8.06503 11.0207 7.96762C10.9858 7.72988 11.0569 7.55733 11.1373 7.49806C11.1496 7.48689 11.165 7.47953 11.1815 7.47684C11.1979 7.47416 11.2148 7.47626 11.2301 7.48292C11.2854 7.50992 11.2657 7.56919 11.2492 7.61463C11.2136 7.69806 11.2089 7.79149 11.236 7.87806C11.2615 7.94477 11.2928 8.00912 11.3296 8.07036C11.4435 8.27715 11.6002 8.55968 11.5627 8.9759C11.5383 9.24591 11.62 9.4639 11.7056 9.69506C11.7912 9.92621 11.8834 10.1738 11.8722 10.4913H11.7991C11.8103 10.1883 11.7221 9.9519 11.6371 9.72337C11.5482 9.48431 11.4639 9.25842 11.4896 8.9726C11.5252 8.57746 11.375 8.30679 11.2657 8.1079C11.2265 8.04274 11.1932 7.97419 11.1662 7.90308C11.1341 7.80152 11.139 7.69185 11.1801 7.59356C11.1847 7.57973 11.1906 7.56195 11.1932 7.55075C11.1844 7.5545 11.1766 7.56012 11.1702 7.56721C11.1261 7.60936 11.0609 7.7391 11.0931 7.95775C11.1094 8.04814 11.1396 8.13545 11.1827 8.21656C11.263 8.38845 11.3539 8.58339 11.3144 9.04044C11.294 9.28888 11.3298 9.53872 11.4191 9.77145C11.4888 9.95164 11.5241 10.1433 11.5232 10.3365L12.2377 11.8934L12.1719 11.9237L11.5133 10.4867V10.4952L11.4409 10.4853C11.4474 10.4386 11.4507 10.3938 11.4527 10.3536L10.3002 7.84316C10.2969 7.83525 10.2778 7.79903 10.2633 7.80496C10.2488 7.81088 10.2633 7.84974 10.2633 7.85698L11.8255 12.0718L11.757 12.0988Z" fill="#85340A"/>
<path d="M12.2244 11.9999L12.0558 7.5111C12.0558 7.5111 12.0558 7.42615 11.9992 7.42615C11.9425 7.42615 11.9432 7.5111 11.9432 7.5111L11.7739 11.9999M12.4233 10.5511C12.6821 9.98601 12.4602 9.52435 12.7183 9.03108C12.9765 8.53781 12.8151 8.13148 12.8322 7.90559C12.8494 7.6797 13.0351 7.61647 12.9877 7.56379C12.9403 7.5111 12.748 7.61516 12.6722 7.91612C12.5965 8.21709 12.7769 8.38964 12.4674 8.9942C12.1579 9.59877 12.4015 9.87142 12.0927 10.4114" fill="#F6B40E"/>
<path d="M12.1884 11.9999L12.1311 10.4194L12.1272 10.4266L12.0613 10.3897C12.085 10.3489 12.1054 10.3087 12.1232 10.2705L12.0191 7.51046C12.0191 7.5019 12.0152 7.46107 11.9994 7.46107C11.9836 7.46107 11.9796 7.5019 11.9796 7.50915L11.811 11.9999H11.736L11.9046 7.51112C11.9052 7.49322 11.9083 7.47549 11.9138 7.45844C11.9184 7.43974 11.9292 7.42313 11.9443 7.41121C11.9595 7.39929 11.9781 7.39273 11.9974 7.39258C12.0167 7.39281 12.0354 7.39938 12.0507 7.41128C12.0659 7.42318 12.0768 7.43974 12.0817 7.45844C12.0872 7.47592 12.0901 7.49412 12.0903 7.51244L12.1897 10.0901C12.2206 9.96802 12.2389 9.84312 12.2444 9.71733C12.2512 9.45856 12.3163 9.20465 12.4347 8.97447C12.6323 8.58327 12.6263 8.37846 12.6184 8.19801C12.6091 8.09952 12.6154 8.00019 12.6369 7.90363C12.6955 7.6705 12.8266 7.53878 12.924 7.51441C12.9398 7.50903 12.9567 7.50822 12.9729 7.51206C12.9891 7.51591 13.0039 7.52426 13.0156 7.53615C13.0564 7.58225 13.0156 7.62901 12.982 7.66786C12.9172 7.7311 12.8773 7.81545 12.8694 7.90561C12.8673 7.97696 12.8715 8.04835 12.8819 8.11898C12.9089 8.35409 12.9477 8.67547 12.7502 9.04559C12.6244 9.28531 12.6184 9.51779 12.6073 9.76475C12.5961 10.0117 12.5882 10.2751 12.4564 10.5636L12.3906 10.5326C12.5164 10.258 12.5256 10.0058 12.5341 9.76212C12.544 9.50659 12.5526 9.26621 12.6863 9.01135C12.8694 8.66099 12.8345 8.35277 12.8094 8.12754C12.7981 8.05237 12.7937 7.97632 12.7963 7.90034C12.8054 7.79394 12.8521 7.69426 12.928 7.61913C12.9381 7.60829 12.9476 7.59686 12.9563 7.58488C12.9467 7.5847 12.9373 7.58672 12.9286 7.59081C12.872 7.6132 12.762 7.70869 12.7087 7.92009C12.6888 8.00976 12.6833 8.102 12.6922 8.1934C12.7001 8.38307 12.71 8.59842 12.5006 9.00674C12.3867 9.22838 12.3244 9.47285 12.3181 9.72194C12.3136 9.91645 12.2725 10.1084 12.197 10.2877L12.2628 11.9999H12.1884Z" fill="#85340A"/>
<path d="M12.2076 12.0863L13.7697 7.87144C13.7697 7.87144 13.802 7.79373 13.75 7.772C13.6979 7.75026 13.6657 7.82863 13.6657 7.82863L11.7914 11.9118M12.9465 10.8205C13.4016 10.3977 13.3733 9.88601 13.8027 9.52906C14.232 9.17212 14.236 8.73878 14.3387 8.53265C14.4415 8.32651 14.6364 8.34298 14.6134 8.27646C14.5903 8.20995 14.3717 8.23234 14.1866 8.48128C14.0015 8.73022 14.1023 8.95874 13.5847 9.39933C13.067 9.83991 13.1895 10.1857 12.6963 10.565" fill="#F6B40E"/>
<path d="M12.2421 12.0988L12.1763 12.0731L12.7242 10.5907L12.7176 10.5959L12.6728 10.538C12.7102 10.509 12.7444 10.48 12.7756 10.451L13.7358 7.86154C13.7358 7.85364 13.7509 7.81479 13.7358 7.8082C13.7206 7.80162 13.7022 7.8385 13.6995 7.84508L11.8253 11.9282L11.7594 11.8979L13.633 7.81479C13.6459 7.78287 13.6691 7.7562 13.6989 7.73905C13.7093 7.73444 13.7205 7.73206 13.7318 7.73206C13.7432 7.73206 13.7544 7.73444 13.7647 7.73905C13.7772 7.74595 13.7882 7.75529 13.797 7.76652C13.8057 7.77775 13.8122 7.79064 13.8159 7.80441C13.8196 7.81818 13.8204 7.83256 13.8184 7.84667C13.8164 7.86079 13.8116 7.87436 13.8043 7.88657L12.906 10.3081C12.9813 10.2072 13.0461 10.0988 13.0996 9.98478C13.2052 9.74817 13.3628 9.53839 13.5606 9.37099C13.8951 9.08649 13.965 8.89418 14.0269 8.72427C14.0569 8.63019 14.1013 8.54133 14.1586 8.46084C14.3021 8.26788 14.474 8.19742 14.5728 8.21125C14.5895 8.212 14.6055 8.21757 14.6191 8.22727C14.6327 8.23697 14.6431 8.25039 14.6492 8.26591C14.6696 8.32452 14.6136 8.35218 14.5682 8.37391C14.4837 8.40774 14.4137 8.47021 14.3706 8.55041C14.3421 8.61579 14.3189 8.68341 14.3015 8.75259C14.2356 8.9798 14.1461 9.29064 13.8253 9.55868C13.6179 9.73189 13.5204 9.94395 13.4183 10.1679C13.3163 10.3918 13.2056 10.6328 12.9731 10.8482L12.9231 10.7948C13.145 10.5887 13.2524 10.3595 13.3512 10.1362C13.4499 9.91299 13.558 9.68513 13.7786 9.50073C14.0822 9.24784 14.1685 8.94885 14.231 8.73152C14.2495 8.6577 14.2744 8.58565 14.3054 8.51616C14.3547 8.42187 14.4356 8.34795 14.534 8.3074C14.5471 8.30081 14.5643 8.29225 14.5735 8.28632C14.5648 8.28227 14.5553 8.28045 14.5458 8.28105C14.4839 8.28105 14.3482 8.32781 14.2165 8.50299C14.164 8.57833 14.1235 8.66144 14.0967 8.7493C14.0308 8.92777 13.9577 9.12995 13.6087 9.42697C13.4185 9.58877 13.2672 9.79137 13.1661 10.0197C13.0871 10.1968 12.9754 10.3575 12.8368 10.4932L12.2421 12.0988Z" fill="#85340A"/>
<path d="M12.1594 12.1594L15.2138 8.86657C15.2138 8.86657 15.2737 8.80664 15.2342 8.76712C15.1947 8.72761 15.1348 8.78688 15.1348 8.78688L11.8419 11.8413M13.327 11.275C13.9092 11.0583 14.0784 10.5749 14.6099 10.4089C15.1414 10.243 15.3146 9.84125 15.4864 9.69373C15.6583 9.54621 15.8342 9.63248 15.8381 9.56202C15.8421 9.49155 15.632 9.4303 15.3659 9.5877C15.0999 9.7451 15.1025 9.99667 14.4584 10.2054C13.8143 10.4142 13.7933 10.781 13.1913 10.9424" fill="#F6B40E"/>
<path d="M12.1858 12.1844L12.1312 12.1317L13.2066 10.9727H13.1987L13.1796 10.9022C13.2257 10.8897 13.2679 10.8759 13.308 10.8614L15.1869 8.83889C15.1929 8.83231 15.2186 8.80135 15.2074 8.79016C15.1962 8.77896 15.2014 8.78357 15.185 8.79016C15.1758 8.79481 15.1674 8.8008 15.1599 8.80794L11.8678 11.8683L11.8184 11.815L15.1112 8.75986C15.1241 8.74748 15.1388 8.73705 15.1547 8.72891C15.1713 8.71863 15.1908 8.71426 15.2102 8.71653C15.2296 8.71879 15.2476 8.72755 15.2613 8.74138C15.2751 8.75521 15.2838 8.77329 15.2859 8.79267C15.2881 8.81206 15.2836 8.8316 15.2732 8.84811C15.2648 8.8642 15.2541 8.87905 15.2416 8.89224L13.4852 10.7856C13.5933 10.7215 13.6946 10.6465 13.7875 10.5617C13.9747 10.3833 14.1999 10.2496 14.4461 10.1705C14.8642 10.0355 15.0026 9.8847 15.1244 9.75101C15.1878 9.67419 15.2627 9.60755 15.3463 9.55344C15.5525 9.42963 15.7382 9.42897 15.8238 9.481C15.8389 9.48808 15.8517 9.49935 15.8605 9.51348C15.8694 9.52761 15.874 9.544 15.8738 9.56069C15.8699 9.62259 15.808 9.62654 15.7573 9.62984C15.6667 9.6291 15.5788 9.66035 15.509 9.71809C15.4574 9.76737 15.41 9.8209 15.3674 9.87812C15.2205 10.0632 15.0184 10.3161 14.6199 10.4405C14.3611 10.5215 14.1905 10.6796 14.0101 10.8475C13.8296 11.0155 13.636 11.1953 13.3383 11.3085L13.3133 11.2427C13.5965 11.1373 13.7816 10.9654 13.96 10.7995C14.1385 10.6335 14.3236 10.4616 14.5975 10.376C14.9755 10.2581 15.1692 10.0151 15.3101 9.83794C15.3558 9.77718 15.4064 9.72035 15.4616 9.66803C15.543 9.59934 15.6461 9.56176 15.7527 9.562C15.7677 9.56165 15.7827 9.56011 15.7974 9.55739C15.7906 9.55104 15.7825 9.54611 15.7737 9.54291C15.7178 9.51854 15.5729 9.508 15.3839 9.62128C15.3063 9.67074 15.2369 9.73207 15.1784 9.80304C15.0506 9.94266 14.9051 10.1014 14.4684 10.2423C14.2312 10.3186 14.0142 10.4473 13.8336 10.619C13.6937 10.7524 13.5299 10.8583 13.3509 10.9312L12.1858 12.1844Z" fill="#85340A"/>
<path d="M11.7158 10.3924C11.6862 9.79642 11.3477 9.53233 11.4142 8.98901C11.2687 9.4184 11.6197 9.75164 11.5999 10.3865M12.1037 11.9506L10.8202 9.14707L11.8956 12.0369" fill="#85340A"/>
<path d="M12.3523 10.4062C12.5532 9.84382 12.3418 9.47041 12.6111 8.9936C12.3115 9.3354 12.5091 9.7773 12.2476 10.3562M12.1159 11.9941L11.9993 8.9126L11.8867 11.9947" fill="#85340A"/>
<path d="M12.9354 10.6624C13.3358 10.2198 13.2838 9.79372 13.7151 9.45653C13.3081 9.65739 13.32 10.1414 12.859 10.5761M12.1089 12.0388L13.185 9.14832L11.9021 11.9525" fill="#85340A"/>
<path d="M13.3758 11.1227C13.9152 10.8665 14.0298 10.4536 14.5573 10.3067C14.1048 10.3364 13.9316 10.7888 13.3376 11.0134M12.0863 12.077L14.1859 9.81873L11.9276 11.9182" fill="#85340A"/>
<path d="M12.0863 12.2082L16.1694 10.3345C16.1694 10.3345 16.2478 10.3023 16.226 10.2502C16.2043 10.1982 16.1266 10.2305 16.1266 10.2305L11.9117 11.7919M13.5002 11.8367C14.1212 11.8598 14.463 11.4778 15.0149 11.5279C15.5668 11.5779 15.8856 11.2756 16.1029 11.2025C16.3202 11.1294 16.4473 11.2789 16.4783 11.2157C16.5092 11.1525 16.3387 11.0135 16.0318 11.0583C15.7249 11.1031 15.6366 11.3362 14.957 11.2816C14.2773 11.2269 14.1219 11.5588 13.5042 11.4791" fill="#F6B40E"/>
<path d="M12.1013 12.2417L12.071 12.1758L13.508 11.5173H13.4994L13.5093 11.4448C13.556 11.4514 13.6008 11.4547 13.641 11.4567L16.1515 10.3042C16.1594 10.3042 16.1956 10.2818 16.1897 10.2673C16.1837 10.2528 16.1442 10.2673 16.1376 10.2673L11.9228 11.8294L11.8971 11.7636L16.1119 10.2021C16.1284 10.1956 16.1457 10.1916 16.1633 10.1902C16.1825 10.1869 16.2023 10.1902 16.2194 10.1995C16.2365 10.2088 16.2499 10.2237 16.2575 10.2416C16.2819 10.3009 16.2351 10.3516 16.1811 10.3733L13.834 11.4507C13.9583 11.4326 14.0806 11.402 14.1988 11.3592C14.4418 11.2639 14.7032 11.2249 14.9634 11.2453C15.4007 11.2808 15.5864 11.1939 15.7504 11.1175C15.8381 11.0716 15.9322 11.0394 16.0296 11.022C16.268 10.9871 16.4399 11.0582 16.4992 11.1386C16.5102 11.151 16.5175 11.1664 16.5202 11.1828C16.5228 11.1992 16.5208 11.2161 16.5143 11.2314C16.4873 11.2868 16.4281 11.267 16.3826 11.2505C16.2991 11.2152 16.2058 11.2106 16.1192 11.2374C16.0525 11.2629 15.9881 11.2941 15.9269 11.3309C15.7201 11.4448 15.4369 11.6015 15.0214 11.564C14.7513 11.5396 14.5334 11.6213 14.3022 11.7069C14.071 11.7925 13.8234 11.8847 13.506 11.8735V11.8004C13.8076 11.811 14.0454 11.7234 14.2739 11.6384C14.5129 11.5495 14.7388 11.4652 15.0253 11.4909C15.4204 11.5265 15.6905 11.3763 15.8894 11.267C15.9545 11.2278 16.0231 11.1945 16.0942 11.1676C16.1957 11.1354 16.3054 11.1403 16.4037 11.1814C16.4175 11.186 16.4353 11.1919 16.4465 11.1946C16.4428 11.1858 16.4371 11.1779 16.43 11.1715C16.3879 11.128 16.2582 11.0628 16.0395 11.0944C15.9491 11.1107 15.8618 11.1409 15.7807 11.184C15.6088 11.2644 15.4132 11.3552 14.9568 11.3157C14.7084 11.2953 14.4585 11.3311 14.2258 11.4204C14.0457 11.4904 13.854 11.5257 13.6607 11.5245L12.1013 12.2417Z" fill="#85340A"/>
<path d="M12.0005 12.2252L16.4893 12.0566C16.4893 12.0566 16.5743 12.0566 16.5743 12C16.5743 11.9434 16.4893 11.944 16.4893 11.944L12.0005 11.7748M13.4493 12.4241C14.0144 12.6829 14.4761 12.461 14.9693 12.7192C15.4626 12.9773 15.8689 12.816 16.0948 12.8331C16.3207 12.8502 16.3839 13.0359 16.4366 12.9885C16.4893 12.9411 16.3853 12.7488 16.0843 12.6731C15.7833 12.5973 15.6108 12.7778 15.0062 12.4683C14.4016 12.1587 14.129 12.4024 13.589 12.0935" fill="#F6B40E"/>
<path d="M16.4207 13.0333C16.386 13.0268 16.3545 13.009 16.3311 12.9826C16.2678 12.9178 16.1836 12.8777 16.0934 12.8693C16.022 12.8678 15.9506 12.8724 15.88 12.8831C15.6449 12.9088 15.3235 12.945 14.9534 12.7514C14.7137 12.6256 14.4812 12.6197 14.2342 12.6085C13.9873 12.5973 13.7238 12.5894 13.4354 12.4577L13.4663 12.3918C13.741 12.5176 13.9932 12.5268 14.2369 12.5354C14.4924 12.5453 14.7328 12.5538 14.9876 12.6875C15.338 12.8706 15.6462 12.8357 15.8714 12.8107C15.9466 12.7994 16.0227 12.795 16.0987 12.7975C16.2051 12.8066 16.3047 12.8533 16.3799 12.9292C16.3907 12.9393 16.4021 12.9488 16.4141 12.9575C16.4143 12.948 16.4123 12.9385 16.4082 12.9299C16.3858 12.8732 16.291 12.7633 16.0789 12.7099C15.9892 12.6901 15.897 12.6845 15.8056 12.6935C15.6159 12.7014 15.4006 12.7112 14.9929 12.5018C14.771 12.388 14.5263 12.3257 14.277 12.3194C14.0829 12.3146 13.8915 12.2733 13.7127 12.1975L12.0004 12.2634V12.1903L13.5809 12.1304L13.5737 12.1264L13.6106 12.0606C13.6514 12.0843 13.6916 12.1047 13.7298 12.1225L16.4898 12.0184C16.4984 12.0184 16.5392 12.0145 16.5392 11.9987C16.5397 11.9976 16.54 11.9965 16.54 11.9954C16.54 11.9942 16.5397 11.9931 16.5392 11.9921C16.5258 11.9832 16.5099 11.9786 16.4938 11.9789L12.0004 11.8116V11.7385L16.4892 11.9071C16.5243 11.9074 16.5582 11.9197 16.5853 11.942C16.5931 11.9495 16.5992 11.9586 16.6032 11.9685C16.6073 11.9785 16.6093 11.9892 16.609 12C16.6088 12.0193 16.6022 12.038 16.5903 12.0532C16.5784 12.0685 16.5619 12.0794 16.5432 12.0843C16.5257 12.0898 16.5075 12.0927 16.4892 12.0928L13.9102 12.1903C14.0323 12.2212 14.1572 12.2395 14.283 12.245C14.5417 12.2518 14.7957 12.3169 15.0258 12.4353C15.417 12.6329 15.6186 12.6269 15.8023 12.619C15.9008 12.6097 16.0001 12.616 16.0967 12.6375C16.3298 12.6961 16.4615 12.8271 16.4852 12.9246C16.4909 12.9403 16.4919 12.9572 16.4881 12.9735C16.4844 12.9897 16.4761 13.0045 16.4642 13.0162C16.4584 13.0218 16.4516 13.0262 16.4442 13.0291C16.4367 13.0321 16.4287 13.0335 16.4207 13.0333Z" fill="#85340A"/>
<path d="M11.9139 12.2078L16.1288 13.77C16.1288 13.77 16.2065 13.8022 16.2282 13.7502C16.25 13.6982 16.1716 13.6659 16.1716 13.6659L12.0885 11.7916M13.1797 12.9468C13.6025 13.4018 14.1142 13.3735 14.4712 13.8029C14.8281 14.2323 15.2647 14.2362 15.4676 14.339C15.6704 14.4417 15.6573 14.6367 15.7238 14.6136C15.7903 14.5906 15.7679 14.3719 15.519 14.1868C15.27 14.0018 15.0415 14.1026 14.6009 13.5849C14.1603 13.0673 13.8146 13.1898 13.4352 12.6965" fill="#F6B40E"/>
<path d="M15.7097 14.6508C15.6669 14.6508 15.6438 14.604 15.6254 14.5652C15.5916 14.4806 15.5291 14.4107 15.4489 14.3676C15.3833 14.3389 15.3155 14.3158 15.2461 14.2984C15.0195 14.2326 14.7087 14.143 14.4406 13.8223C14.2674 13.6148 14.0554 13.5174 13.8314 13.4153C13.6075 13.3132 13.3665 13.2026 13.1511 12.9701L13.2045 12.92C13.4106 13.142 13.6398 13.2493 13.8631 13.3481C14.0949 13.4548 14.3142 13.5549 14.4986 13.7755C14.7515 14.0791 15.0498 14.1654 15.2678 14.228C15.3416 14.2465 15.4137 14.2714 15.4831 14.3024C15.5774 14.3516 15.6513 14.4326 15.6919 14.5309C15.6983 14.5445 15.7056 14.5577 15.7136 14.5704C15.717 14.5616 15.7186 14.5522 15.7182 14.5428C15.7182 14.4822 15.6735 14.3452 15.4963 14.2135C15.421 14.1609 15.3379 14.1205 15.25 14.0936C15.0715 14.0278 14.8694 13.9547 14.5723 13.6056C14.4105 13.4154 14.2079 13.2642 13.9796 13.1631C13.8025 13.0841 13.6418 12.9724 13.5061 12.8338L11.9005 12.2411L11.9262 12.1752L13.4093 12.7244L13.404 12.7179L13.462 12.6731C13.491 12.7104 13.5199 12.7446 13.5489 12.7758L16.1384 13.736C16.1463 13.74 16.1858 13.7518 16.1918 13.736C16.1977 13.7202 16.1615 13.7024 16.1549 13.6998L12.0717 11.8255L12.102 11.7596L16.1852 13.6333C16.2171 13.6461 16.2438 13.6693 16.2609 13.6991C16.2655 13.7095 16.2679 13.7207 16.2679 13.7321C16.2679 13.7434 16.2655 13.7546 16.2609 13.765C16.254 13.7775 16.2447 13.7884 16.2334 13.7972C16.2222 13.806 16.2093 13.8124 16.1956 13.8161C16.1818 13.8198 16.1674 13.8207 16.1533 13.8187C16.1392 13.8167 16.1256 13.8119 16.1134 13.8045L13.6918 12.9062C13.7928 12.9815 13.9011 13.0464 14.0152 13.0998C14.2518 13.2055 14.4616 13.363 14.629 13.5608C14.9135 13.8954 15.1058 13.9652 15.2757 14.0271C15.3698 14.0572 15.4586 14.1016 15.5391 14.1588C15.7321 14.3024 15.8025 14.4743 15.7887 14.5731C15.788 14.5897 15.7824 14.6058 15.7727 14.6193C15.763 14.6329 15.7496 14.6434 15.7341 14.6495C15.7261 14.6514 15.7178 14.6519 15.7097 14.6508Z" fill="#85340A"/>
<path d="M11.8411 12.1595L15.1339 15.2139C15.1339 15.2139 15.1939 15.2739 15.2334 15.2343C15.2729 15.1948 15.2136 15.1349 15.2136 15.1349L12.1592 11.842M12.7255 13.3271C12.9422 13.9093 13.4256 14.0785 13.5915 14.61C13.7575 15.1415 14.1592 15.3147 14.3068 15.4866C14.4543 15.6585 14.368 15.8343 14.4385 15.8382C14.5089 15.8422 14.5702 15.6321 14.4128 15.3661C14.2554 15.1 14.0038 15.1026 13.795 14.4585C13.5863 13.8145 13.2195 13.7934 13.0581 13.1915" fill="#F6B40E"/>
<path d="M14.4405 15.8738H14.4365C14.3746 15.8698 14.3707 15.8079 14.3674 15.7572C14.3685 15.6666 14.3372 15.5786 14.2791 15.5089C14.2299 15.4573 14.1763 15.41 14.1191 15.3674C13.9341 15.2205 13.6812 15.0183 13.5567 14.6199C13.4757 14.3611 13.3176 14.1905 13.1497 14.01C12.9818 13.8296 12.802 13.636 12.6887 13.3383L12.7546 13.3133C12.8599 13.5965 13.0318 13.7815 13.1978 13.96C13.3637 14.1385 13.5356 14.3235 13.6212 14.5975C13.7391 14.9755 13.9821 15.1691 14.1593 15.3107C14.2202 15.356 14.277 15.4064 14.3292 15.4615C14.3979 15.5429 14.4355 15.6461 14.4352 15.7526C14.4356 15.7676 14.4371 15.7826 14.4398 15.7974C14.4462 15.7905 14.4511 15.7825 14.4543 15.7737C14.4787 15.7177 14.4892 15.5728 14.376 15.3838C14.3265 15.3064 14.2654 15.2371 14.1948 15.1783C14.0546 15.0506 13.8959 14.905 13.7549 14.4684C13.6787 14.2312 13.5499 14.0142 13.3782 13.8335C13.2448 13.6936 13.1389 13.5299 13.0661 13.3508L11.8154 12.1865L11.8681 12.1318L13.0272 13.2072V13.1993L13.0977 13.1802C13.1102 13.2263 13.124 13.2685 13.1385 13.3087L15.161 15.1876C15.1676 15.1935 15.1985 15.2192 15.2097 15.208C15.2209 15.1968 15.1952 15.1658 15.1899 15.1606L12.1315 11.8684L12.1849 11.819L15.24 15.1118C15.2647 15.1366 15.2801 15.1692 15.2835 15.204C15.2835 15.2148 15.2813 15.2255 15.2771 15.2355C15.2729 15.2454 15.2668 15.2544 15.2591 15.262C15.245 15.2756 15.2269 15.2841 15.2074 15.2862C15.188 15.2884 15.1684 15.284 15.1517 15.2738C15.1357 15.2654 15.1208 15.2547 15.1076 15.2422L13.2142 13.4858C13.2784 13.5941 13.3536 13.6954 13.4388 13.7881C13.6167 13.9756 13.7502 14.2006 13.8293 14.4467C13.9611 14.8649 14.1152 15.0032 14.2488 15.125C14.3245 15.1887 14.39 15.2635 14.4431 15.3469C14.5669 15.5531 14.5676 15.7388 14.5156 15.8244C14.5086 15.8386 14.498 15.8507 14.4848 15.8594C14.4716 15.8681 14.4563 15.873 14.4405 15.8738Z" fill="#85340A"/>
<path d="M13.608 11.7162C14.2007 11.6866 14.468 11.3481 15.0114 11.4146C14.582 11.269 14.2487 11.6201 13.6139 11.6003M12.0498 12.1041L14.8533 10.8206L11.9635 11.896" fill="#85340A"/>
<path d="M13.5935 12.3531C14.1559 12.5539 14.5293 12.3425 15.0061 12.6119C14.6643 12.3122 14.2224 12.5098 13.6435 12.2483M12.0057 12.1166L15.0871 12.0001L12.005 11.8875" fill="#85340A"/>
<path d="M13.3378 12.9359C13.7804 13.3363 14.2065 13.2843 14.5437 13.7156C14.3428 13.3086 13.8588 13.3205 13.4241 12.8595M11.9614 12.1094L14.8519 13.1855L12.0477 11.9026" fill="#85340A"/>
<path d="M12.8775 13.3764C13.1337 13.9158 13.5466 14.0304 13.6935 14.5579C13.6638 14.1055 13.2114 13.9323 12.9868 13.3382M11.9232 12.0869L14.1815 14.1865L12.0819 11.9282" fill="#85340A"/>
<path d="M12 13.8294C13.0105 13.8294 13.8296 13.0103 13.8296 11.9999C13.8296 10.9895 13.0105 10.1704 12 10.1704C10.9896 10.1704 10.1705 10.9895 10.1705 11.9999C10.1705 13.0103 10.9896 13.8294 12 13.8294Z" fill="#F6B40E"/>
<path d="M11.9998 13.8788C11.6281 13.8788 11.2649 13.7686 10.9559 13.5621C10.6469 13.3557 10.4061 13.0622 10.2639 12.7189C10.1217 12.3756 10.0845 11.9978 10.157 11.6333C10.2295 11.2688 10.4084 10.9341 10.6712 10.6713C10.9339 10.4085 11.2687 10.2296 11.6332 10.1571C11.9977 10.0846 12.3755 10.1218 12.7188 10.264C13.0621 10.4062 13.3555 10.647 13.562 10.956C13.7685 11.265 13.8787 11.6283 13.8787 11.9999C13.8781 12.498 13.68 12.9756 13.3278 13.3279C12.9755 13.6801 12.4979 13.8783 11.9998 13.8788ZM11.9998 10.2217C11.6481 10.2217 11.3043 10.326 11.0119 10.5214C10.7195 10.7168 10.4915 10.9945 10.357 11.3194C10.2224 11.6443 10.1872 12.0018 10.2558 12.3468C10.3244 12.6917 10.4937 13.0085 10.7424 13.2572C10.9911 13.5059 11.3079 13.6752 11.6529 13.7439C11.9978 13.8125 12.3553 13.7772 12.6802 13.6427C13.0051 13.5081 13.2828 13.2802 13.4782 12.9878C13.6736 12.6953 13.7779 12.3516 13.7779 11.9999C13.7767 11.5287 13.5889 11.0771 13.2557 10.7439C12.9225 10.4107 12.471 10.223 11.9998 10.2217Z" fill="#85340A"/>
<path d="M12.6238 11.6088C12.5614 11.607 12.4996 11.6214 12.4444 11.6506C12.3893 11.6798 12.3426 11.7228 12.309 11.7754C12.4499 11.9019 12.7607 11.9157 12.9715 11.7609C12.9268 11.7134 12.8729 11.6755 12.8132 11.6493C12.7534 11.6232 12.689 11.6094 12.6238 11.6088ZM12.6238 11.6378C12.7456 11.6378 12.8589 11.6911 12.8747 11.7464C12.8097 11.8146 12.7212 11.8555 12.6272 11.8608C12.5331 11.8662 12.4406 11.8357 12.3682 11.7754C12.3955 11.7325 12.4333 11.6973 12.478 11.6732C12.5228 11.6491 12.5729 11.6369 12.6238 11.6378Z" fill="#843511"/>
<path d="M12.6469 11.5217C12.4638 11.5217 12.4217 11.5639 12.3374 11.6343C12.296 11.6677 12.248 11.6918 12.1965 11.7048C12.1826 11.7186 12.1965 11.7608 12.2248 11.747C12.2854 11.7166 12.3421 11.6787 12.3934 11.6343C12.4656 11.579 12.5565 11.5537 12.6469 11.5639C12.9005 11.5639 13.0421 11.7753 13.0691 11.7614C13.0961 11.7476 12.9281 11.5224 12.6469 11.5224V11.5217Z" fill="#85340A"/>
<path d="M13.1538 11.6048C12.8305 11.3236 12.4221 11.2814 12.1969 11.4922C12.1439 11.5611 12.108 11.6417 12.0922 11.7273C12.0639 11.8873 12.1139 12.0605 12.2391 12.2383C12.2181 12.2418 12.1986 12.2514 12.1831 12.266C12.0742 12.071 12.0338 11.8452 12.0685 11.6246C12.078 11.5697 12.0928 11.5159 12.1126 11.4639C12.4221 11.211 12.8443 11.1827 13.1538 11.6048Z" fill="#85340A"/>
<path d="M12.6189 11.8728C12.6887 11.8728 12.7453 11.8162 12.7453 11.7463C12.7453 11.6765 12.6887 11.6199 12.6189 11.6199C12.549 11.6199 12.4924 11.6765 12.4924 11.7463C12.4924 11.8162 12.549 11.8728 12.6189 11.8728Z" fill="#85340A"/>
<path d="M12.9876 11.8313C12.7485 12.0144 12.5088 11.9999 12.3685 11.9156C12.2282 11.8313 12.2276 11.803 12.2559 11.803C12.2842 11.803 12.3119 11.8313 12.4245 11.8873C12.5371 11.9433 12.7057 11.9439 12.9876 11.8313Z" fill="#85340A"/>
<path d="M11.7196 12.2528C11.6905 12.2585 11.6642 12.2742 11.6455 12.2972C11.6267 12.3201 11.6166 12.3489 11.6168 12.3786C11.6169 12.3952 11.6203 12.4116 11.6267 12.4268C11.6332 12.4421 11.6426 12.456 11.6544 12.4676C11.6662 12.4792 11.6802 12.4884 11.6955 12.4946C11.7109 12.5008 11.7274 12.5039 11.7439 12.5037C11.7642 12.5039 11.7842 12.4992 11.8022 12.4899C11.8203 12.4806 11.8357 12.467 11.8473 12.4504C11.8926 12.4795 11.9457 12.4937 11.9995 12.4912C12.0049 12.4915 12.0104 12.4915 12.0159 12.4912C12.0696 12.4934 12.1227 12.4792 12.168 12.4504C12.1795 12.467 12.1949 12.4805 12.2128 12.4898C12.2307 12.4991 12.2506 12.5039 12.2708 12.5037C12.3026 12.5045 12.3336 12.4932 12.3575 12.472C12.3814 12.4509 12.3964 12.4216 12.3996 12.3899C12.4027 12.3581 12.3938 12.3264 12.3746 12.301C12.3553 12.2756 12.3272 12.2584 12.2958 12.2528C12.3103 12.258 12.3231 12.2669 12.3329 12.2788C12.3427 12.2907 12.3491 12.305 12.3514 12.3202C12.3537 12.3354 12.3518 12.351 12.3459 12.3652C12.3401 12.3795 12.3305 12.3918 12.3181 12.401C12.3058 12.4102 12.2911 12.4159 12.2758 12.4174C12.2605 12.4189 12.2451 12.4163 12.2312 12.4097C12.2172 12.4031 12.2054 12.3929 12.1968 12.3801C12.1882 12.3674 12.1833 12.3525 12.1825 12.3371C12.1674 12.3708 12.1429 12.3994 12.1118 12.4195C12.0808 12.4396 12.0446 12.4503 12.0077 12.4503C11.9707 12.4503 11.9346 12.4396 11.9035 12.4195C11.8725 12.3994 11.848 12.3708 11.8328 12.3371C11.8317 12.3587 11.8223 12.3791 11.8066 12.394C11.791 12.4089 11.7702 12.4173 11.7485 12.4175C11.7286 12.4173 11.7094 12.4102 11.6942 12.3974C11.679 12.3846 11.6688 12.3668 11.6653 12.3472C11.6619 12.3276 11.6654 12.3074 11.6753 12.2902C11.6852 12.2729 11.7009 12.2597 11.7196 12.2528Z" fill="#85340A"/>
<path d="M11.8578 12.6274C11.7168 12.6274 11.6602 12.7552 11.5344 12.8395C11.6116 12.7966 11.6866 12.7498 11.759 12.6992C11.8578 12.6432 11.9414 12.7117 11.9974 12.7117C12.0534 12.7117 12.1377 12.6459 12.2358 12.6992C12.3088 12.7499 12.3844 12.7967 12.4624 12.8395C12.3359 12.7552 12.278 12.6274 12.137 12.6274C12.0881 12.6325 12.0406 12.6473 11.9974 12.6709C11.9542 12.6473 11.9067 12.6325 11.8578 12.6274Z" fill="#85340A"/>
<path d="M11.8098 12.7942C11.7301 12.7997 11.6513 12.815 11.5753 12.8396C11.8282 12.783 11.8842 12.868 11.9968 12.868C12.1094 12.868 12.1654 12.783 12.4189 12.8396C12.1377 12.7553 12.0818 12.8107 11.9968 12.8107C11.9349 12.8014 11.8724 12.7959 11.8098 12.7942Z" fill="#85340A"/>
<path d="M11.5885 12.8377H11.5352C11.8309 12.866 11.6886 13.0353 11.9962 13.0353C12.3057 13.0353 12.1654 12.866 12.4611 12.8377C12.1516 12.8094 12.2497 12.9925 11.9962 12.9925C11.7584 12.9925 11.8315 12.8324 11.5865 12.8357L11.5885 12.8377Z" fill="#85340A"/>
<path d="M12.2536 13.2947C12.2553 13.2603 12.2501 13.226 12.2382 13.1937C12.2262 13.1615 12.2079 13.132 12.1842 13.1071C12.1605 13.0822 12.132 13.0623 12.1004 13.0488C12.0688 13.0352 12.0348 13.0282 12.0004 13.0282C11.966 13.0282 11.932 13.0352 11.9004 13.0488C11.8688 13.0623 11.8403 13.0822 11.8166 13.1071C11.7929 13.132 11.7745 13.1615 11.7626 13.1937C11.7507 13.226 11.7454 13.2603 11.7472 13.2947C11.7629 13.2397 11.7962 13.1913 11.8418 13.1569C11.8875 13.1225 11.9432 13.1039 12.0004 13.1039C12.0576 13.1039 12.1132 13.1225 12.1589 13.1569C12.2046 13.1913 12.2378 13.2397 12.2536 13.2947Z" fill="#85340A"/>
<path d="M10.8625 11.6048C11.1859 11.3236 11.5942 11.2814 11.8195 11.4922C11.8725 11.5611 11.9084 11.6417 11.9242 11.7273C11.9525 11.8873 11.9024 12.0605 11.7773 12.2383C11.7983 12.2418 11.8178 12.2514 11.8333 12.266C11.9422 12.071 11.9825 11.8452 11.9479 11.6246C11.9383 11.5697 11.9236 11.5159 11.9037 11.4639C11.5942 11.211 11.1721 11.1827 10.8625 11.6048Z" fill="#85340A"/>
<path d="M11.3692 11.5217C11.5523 11.5217 11.5944 11.5639 11.6787 11.6343C11.7201 11.6677 11.7681 11.6918 11.8197 11.7048C11.8335 11.7186 11.8197 11.7608 11.7913 11.747C11.7307 11.7166 11.674 11.6787 11.6227 11.6343C11.5505 11.579 11.4596 11.5537 11.3692 11.5639C11.1156 11.5639 10.974 11.7753 10.947 11.7614C10.92 11.7476 11.088 11.5224 11.3692 11.5224V11.5217Z" fill="#85340A"/>
<path d="M11.3602 11.6088C11.2978 11.607 11.236 11.6214 11.1809 11.6506C11.1257 11.6798 11.079 11.7228 11.0454 11.7754C11.1857 11.9019 11.4965 11.9157 11.7079 11.7609C11.6632 11.7134 11.6094 11.6755 11.5496 11.6493C11.4898 11.6232 11.4254 11.6094 11.3602 11.6088ZM11.3602 11.6378C11.4814 11.6378 11.5953 11.6911 11.6111 11.7464C11.5461 11.8146 11.4576 11.8555 11.3636 11.8608C11.2696 11.8662 11.177 11.8357 11.1047 11.7754C11.1319 11.7325 11.1697 11.6973 11.2145 11.6732C11.2592 11.6491 11.3094 11.6369 11.3602 11.6378Z" fill="#843511"/>
<path d="M11.3768 11.8728C11.4466 11.8728 11.5033 11.8162 11.5033 11.7463C11.5033 11.6765 11.4466 11.6199 11.3768 11.6199C11.307 11.6199 11.2504 11.6765 11.2504 11.7463C11.2504 11.8162 11.307 11.8728 11.3768 11.8728Z" fill="#85340A"/>
<path d="M11.0314 11.8313C11.2704 12.0144 11.5102 11.9999 11.6504 11.9156C11.7907 11.8313 11.7914 11.803 11.763 11.803C11.7347 11.803 11.7071 11.8313 11.5944 11.8873C11.4818 11.9433 11.3132 11.9439 11.0314 11.8313Z" fill="#85340A"/>
</g>
<defs>
<clipPath id="clip0_5137_1972">
<rect width="24" height="24" rx="12" fill="white"/>
</clipPath>
</defs>
</svg>
