<svg width="24" height="24" viewBox="0 0 24 24" fill="none" xmlns="http://www.w3.org/2000/svg">
<rect x="5.771" y="3.7207" width="6.80851" height="2.38298" fill="white"/>
<rect x="5.771" y="3.7207" width="6.80851" height="2.38298" fill="url(#paint0_linear_5303_1775)"/>
<rect x="5.771" y="17.3379" width="6.80851" height="2.38298" fill="white"/>
<rect x="5.771" y="17.3379" width="6.80851" height="2.38298" fill="url(#paint1_linear_5303_1775)"/>
<rect x="9.17529" y="7.125" width="6.80851" height="2.38298" fill="white"/>
<rect x="9.17529" y="7.125" width="6.80851" height="2.38298" fill="url(#paint2_linear_5303_1775)"/>
<rect x="9.17529" y="13.9336" width="6.80851" height="2.38298" fill="white"/>
<rect x="9.17529" y="13.9336" width="6.80851" height="2.38298" fill="url(#paint3_linear_5303_1775)"/>
<rect x="11.8989" y="10.5293" width="6.80851" height="2.38298" fill="white"/>
<rect x="11.8989" y="10.5293" width="6.80851" height="2.38298" fill="url(#paint4_linear_5303_1775)"/>
<defs>
<linearGradient id="paint0_linear_5303_1775" x1="5.771" y1="4.91219" x2="12.5795" y2="4.91219" gradientUnits="userSpaceOnUse">
<stop offset="1" stop-color="#FD7811"/>
</linearGradient>
<linearGradient id="paint1_linear_5303_1775" x1="5.771" y1="18.5294" x2="12.5795" y2="18.5294" gradientUnits="userSpaceOnUse">
<stop offset="1" stop-color="#FD7811"/>
</linearGradient>
<linearGradient id="paint2_linear_5303_1775" x1="9.17529" y1="8.31649" x2="15.9838" y2="8.31649" gradientUnits="userSpaceOnUse">
<stop offset="1" stop-color="#FD7811"/>
</linearGradient>
<linearGradient id="paint3_linear_5303_1775" x1="9.17529" y1="15.1251" x2="15.9838" y2="15.1251" gradientUnits="userSpaceOnUse">
<stop offset="1" stop-color="#FD7811"/>
</linearGradient>
<linearGradient id="paint4_linear_5303_1775" x1="11.8989" y1="11.7208" x2="18.7074" y2="11.7208" gradientUnits="userSpaceOnUse">
<stop offset="1" stop-color="#FD7811"/>
</linearGradient>
</defs>
</svg>
