<svg width="24" height="24" viewBox="0 0 24 24" fill="none" xmlns="http://www.w3.org/2000/svg">
<path d="M22 17.984C22 20.18 20.2 21.98 18.004 21.98L6.052 21.98C3.82 21.98 2.056 20.18 2.056 17.984L2.056 6.032L2.056 5.996C2.056 3.8 3.856 2 6.052 2L18.004 2C20.2 2 22 3.8 22 6.032L22 17.948L22 17.984ZM17.572 6.032L3.46 6.032C3.316 6.032 3.316 6.212 3.424 6.248C4.972 6.788 6.052 8.264 6.052 9.992L6.052 17.516L6.484 17.948L20.596 17.948C20.74 17.948 20.74 17.804 20.632 17.768C19.084 17.192 17.968 15.716 17.968 13.988L17.968 6.464C17.824 6.284 17.716 6.212 17.572 6.032Z" fill="black"/>
</svg>
