<svg width="24" height="24" viewBox="0 0 24 24" fill="none" xmlns="http://www.w3.org/2000/svg">
<path d="M22.3125 12.0312H20.9375V10.6562C20.9375 10.2438 20.6625 9.96875 20.25 9.96875H18.875V8.59375C18.875 8.18125 18.6 7.90625 18.1875 7.90625H16.8125V6.53125H18.1875C18.6 6.53125 18.875 6.25625 18.875 5.84375V3.78125C18.875 3.36875 18.6 3.09375 18.1875 3.09375H16.125C15.7125 3.09375 15.4375 3.36875 15.4375 3.78125V5.15625H14.0625C13.65 5.15625 13.375 5.43125 13.375 5.84375V7.90625H10.625V5.84375C10.625 5.43125 10.35 5.15625 9.9375 5.15625H8.5625V3.78125C8.5625 3.36875 8.2875 3.09375 7.875 3.09375H5.8125C5.4 3.09375 5.125 3.36875 5.125 3.78125V5.84375C5.125 6.25625 5.4 6.53125 5.8125 6.53125H7.1875V7.90625H5.8125C5.4 7.90625 5.125 8.18125 5.125 8.59375V9.96875H3.75C3.3375 9.96875 3.0625 10.2438 3.0625 10.6562V12.0312H1.6875C1.275 12.0312 1 12.3062 1 12.7188V18.9062C1 19.3188 1.275 19.5938 1.6875 19.5938H3.75C4.1625 19.5938 4.4375 19.3188 4.4375 18.9062V15.4688H5.125V18.9062C5.125 19.3188 5.4 19.5938 5.8125 19.5938H7.1875V20.9688C7.1875 21.3813 7.4625 21.6562 7.875 21.6562H10.625C11.0375 21.6562 11.3125 21.3813 11.3125 20.9688V18.9062C11.3125 18.4937 11.0375 18.2188 10.625 18.2188H8.5625V17.5312H15.4375V18.2188H13.375C12.9625 18.2188 12.6875 18.4937 12.6875 18.9062V20.9688C12.6875 21.3813 12.9625 21.6562 13.375 21.6562H16.125C16.5375 21.6562 16.8125 21.3813 16.8125 20.9688V19.5938H18.1875C18.6 19.5938 18.875 19.3188 18.875 18.9062V15.4688H19.5625V18.9062C19.5625 19.3188 19.8375 19.5938 20.25 19.5938H22.3125C22.725 19.5938 23 19.3188 23 18.9062V12.7188C23 12.3062 22.725 12.0312 22.3125 12.0312ZM10.625 14.0938C10.625 14.5063 10.35 14.7812 9.9375 14.7812H7.875C7.4625 14.7812 7.1875 14.5063 7.1875 14.0938V12.0312C7.1875 11.6187 7.4625 11.3438 7.875 11.3438H9.9375C10.35 11.3438 10.625 11.6187 10.625 12.0312V14.0938ZM16.8125 14.0938C16.8125 14.5063 16.5375 14.7812 16.125 14.7812H14.0625C13.65 14.7812 13.375 14.5063 13.375 14.0938V12.0312C13.375 11.6187 13.65 11.3438 14.0625 11.3438H16.125C16.5375 11.3438 16.8125 11.6187 16.8125 12.0312V14.0938Z" fill="#818CF8"/>
</svg>
