<svg width="24" height="24" viewBox="0 0 24 24" fill="none" xmlns="http://www.w3.org/2000/svg">
<path d="M15.2497 13C16.2162 13 16.9997 13.7835 16.9997 14.75V19.25C16.9997 20.2165 16.2162 21 15.2497 21H3.74966C2.78316 21 1.99966 20.2165 1.99966 19.25V14.75C1.99966 13.7835 2.78316 13 3.74966 13H15.2497ZM20.9999 14.8989L20.9997 20.25C20.9997 20.6642 20.6639 21 20.2497 21C19.87 21 19.5562 20.7178 19.5065 20.3518L19.4997 20.25L19.4993 14.9117C19.7316 14.9694 19.9746 15 20.2247 15C20.4928 15 20.7526 14.9648 20.9999 14.8989ZM15.2497 14.5H3.74966C3.61159 14.5 3.49966 14.6119 3.49966 14.75V19.25C3.49966 19.3881 3.61159 19.5 3.74966 19.5H15.2497C15.3877 19.5 15.4997 19.3881 15.4997 19.25V14.75C15.4997 14.6119 15.3877 14.5 15.2497 14.5ZM20.2495 10.0919C21.3033 10.0919 22.1575 10.9462 22.1575 12C22.1575 13.0538 21.3033 13.9081 20.2495 13.9081C19.1957 13.9081 18.3414 13.0538 18.3414 12C18.3414 10.9462 19.1957 10.0919 20.2495 10.0919ZM15.2453 3C16.2118 3 16.9953 3.7835 16.9953 4.75V9.25C16.9953 10.2165 16.2118 11 15.2453 11H3.74527C2.77877 11 1.99527 10.2165 1.99527 9.25V4.75C1.99527 3.83183 2.70238 3.07881 3.60174 3.0058L3.74527 3H15.2453ZM15.2453 4.5H3.74527L3.68795 4.5066C3.5775 4.53251 3.49527 4.63165 3.49527 4.75V9.25C3.49527 9.38807 3.6072 9.5 3.74527 9.5H15.2453C15.3833 9.5 15.4953 9.38807 15.4953 9.25V4.75C15.4953 4.61193 15.3833 4.5 15.2453 4.5ZM20.2497 3C20.6294 3 20.9432 3.28215 20.9928 3.64823L20.9997 3.75L20.9999 9.10113C20.7526 9.03516 20.4928 9 20.2247 9C19.9746 9 19.7316 9.03061 19.4993 9.08829L19.4997 3.75C19.4997 3.33579 19.8355 3 20.2497 3Z" fill="white"/>
</svg>
