<svg width="120" height="16" viewBox="0 0 120 16" fill="none" xmlns="http://www.w3.org/2000/svg">
<g clip-path="url(#clip0_5045_287)">
<path d="M97.8239 13.424L96.3519 2.224H98.4479L99.5359 11.952H99.8239L101.232 2.224H104.88L106.288 11.952H106.576L107.664 2.224H109.76L108.288 13.424H104.64L103.2 3.472H102.912L101.472 13.424H97.8239Z" fill="white"/>
<path d="M90.5611 13.648C89.1531 13.648 88.0331 13.264 87.2011 12.496C86.3691 11.7173 85.9531 10.608 85.9531 9.168V6.48C85.9531 5.04 86.3691 3.936 87.2011 3.168C88.0331 2.38933 89.1531 2 90.5611 2C91.9691 2 93.0891 2.38933 93.9211 3.168C94.7531 3.936 95.1691 5.04 95.1691 6.48V9.168C95.1691 10.608 94.7531 11.7173 93.9211 12.496C93.0891 13.264 91.9691 13.648 90.5611 13.648ZM90.5611 11.76C91.3505 11.76 91.9638 11.5307 92.4011 11.072C92.8385 10.6133 93.0571 10 93.0571 9.232V6.416C93.0571 5.648 92.8385 5.03467 92.4011 4.576C91.9638 4.11733 91.3505 3.888 90.5611 3.888C89.7825 3.888 89.1691 4.11733 88.7211 4.576C88.2838 5.03467 88.0651 5.648 88.0651 6.416V9.232C88.0651 10 88.2838 10.6133 88.7211 11.072C89.1691 11.5307 89.7825 11.76 90.5611 11.76Z" fill="white"/>
<path d="M76.0998 13.424V2.224H80.9638C81.6678 2.224 82.2811 2.34667 82.8038 2.592C83.3265 2.83733 83.7318 3.184 84.0198 3.632C84.3078 4.08 84.4518 4.608 84.4518 5.216V5.408C84.4518 6.08 84.2918 6.624 83.9718 7.04C83.6518 7.456 83.2571 7.76 82.7878 7.952V8.24C83.2145 8.26133 83.5451 8.41067 83.7798 8.688C84.0145 8.95467 84.1318 9.312 84.1318 9.76V13.424H82.0198V10.064C82.0198 9.808 81.9505 9.6 81.8118 9.44C81.6838 9.28 81.4651 9.2 81.1558 9.2H78.2118V13.424H76.0998ZM78.2118 7.28H80.7398C81.2411 7.28 81.6305 7.14667 81.9078 6.88C82.1958 6.60267 82.3398 6.24 82.3398 5.792V5.632C82.3398 5.184 82.2011 4.82667 81.9238 4.56C81.6465 4.28267 81.2518 4.144 80.7398 4.144H78.2118V7.28Z" fill="white"/>
<path d="M65.9904 13.424V2.224H70.8544C71.5584 2.224 72.1718 2.34667 72.6944 2.592C73.2171 2.83733 73.6224 3.184 73.9104 3.632C74.1984 4.08 74.3424 4.608 74.3424 5.216V5.408C74.3424 6.08 74.1824 6.624 73.8624 7.04C73.5424 7.456 73.1478 7.76 72.6784 7.952V8.24C73.1051 8.26133 73.4358 8.41067 73.6704 8.688C73.9051 8.95467 74.0224 9.312 74.0224 9.76V13.424H71.9104V10.064C71.9104 9.808 71.8411 9.6 71.7024 9.44C71.5744 9.28 71.3558 9.2 71.0464 9.2H68.1024V13.424H65.9904ZM68.1024 7.28H70.6304C71.1318 7.28 71.5211 7.14667 71.7984 6.88C72.0864 6.60267 72.2304 6.24 72.2304 5.792V5.632C72.2304 5.184 72.0918 4.82667 71.8144 4.56C71.5371 4.28267 71.1424 4.144 70.6304 4.144H68.1024V7.28Z" fill="white"/>
<path d="M59.5299 13.648C58.1219 13.648 57.0019 13.264 56.1699 12.496C55.3379 11.7173 54.9219 10.608 54.9219 9.168V6.48C54.9219 5.04 55.3379 3.936 56.1699 3.168C57.0019 2.38933 58.1219 2 59.5299 2C60.9379 2 62.0579 2.38933 62.8899 3.168C63.7219 3.936 64.1379 5.04 64.1379 6.48V9.168C64.1379 10.608 63.7219 11.7173 62.8899 12.496C62.0579 13.264 60.9379 13.648 59.5299 13.648ZM59.5299 11.76C60.3192 11.76 60.9325 11.5307 61.3699 11.072C61.8072 10.6133 62.0259 10 62.0259 9.232V6.416C62.0259 5.648 61.8072 5.03467 61.3699 4.576C60.9325 4.11733 60.3192 3.888 59.5299 3.888C58.7512 3.888 58.1379 4.11733 57.6899 4.576C57.2525 5.03467 57.0339 5.648 57.0339 6.416V9.232C57.0339 10 57.2525 10.6133 57.6899 11.072C58.1379 11.5307 58.7512 11.76 59.5299 11.76Z" fill="white"/>
<path d="M41.0685 13.424V2.224H44.9885L46.9245 11.984H47.2125L49.1485 2.224H53.0685V13.424H51.0205V3.776H50.7325L48.8125 13.424H45.3245L43.4045 3.776H43.1165V13.424H41.0685Z" fill="white"/>
<path d="M35.2534 13.648C34.3894 13.648 33.6267 13.4933 32.9654 13.184C32.3041 12.8747 31.7867 12.432 31.4134 11.856C31.0401 11.28 30.8534 10.5867 30.8534 9.776V9.328H32.9334V9.776C32.9334 10.448 33.1414 10.9547 33.5574 11.296C33.9734 11.6267 34.5387 11.792 35.2534 11.792C35.9787 11.792 36.5174 11.648 36.8694 11.36C37.2321 11.072 37.4134 10.704 37.4134 10.256C37.4134 9.94667 37.3227 9.696 37.1414 9.504C36.9707 9.312 36.7147 9.15733 36.3734 9.04C36.0427 8.912 35.6374 8.79467 35.1574 8.688L34.7894 8.608C34.0214 8.43733 33.3601 8.224 32.8054 7.968C32.2614 7.70133 31.8401 7.35467 31.5414 6.928C31.2534 6.50133 31.1094 5.94667 31.1094 5.264C31.1094 4.58133 31.2694 4 31.5894 3.52C31.9201 3.02933 32.3787 2.656 32.9654 2.4C33.5627 2.13333 34.2614 2 35.0614 2C35.8614 2 36.5707 2.13867 37.1894 2.416C37.8187 2.68267 38.3094 3.088 38.6614 3.632C39.0241 4.16533 39.2054 4.83733 39.2054 5.648V6.128H37.1254V5.648C37.1254 5.22133 37.0401 4.88 36.8694 4.624C36.7094 4.35733 36.4747 4.16533 36.1654 4.048C35.8561 3.92 35.4881 3.856 35.0614 3.856C34.4214 3.856 33.9467 3.97867 33.6374 4.224C33.3387 4.45867 33.1894 4.784 33.1894 5.2C33.1894 5.47733 33.2587 5.712 33.3974 5.904C33.5467 6.096 33.7654 6.256 34.0534 6.384C34.3414 6.512 34.7094 6.624 35.1574 6.72L35.5254 6.8C36.3254 6.97067 37.0187 7.18933 37.6054 7.456C38.2027 7.72267 38.6667 8.07467 38.9974 8.512C39.3281 8.94933 39.4934 9.50933 39.4934 10.192C39.4934 10.8747 39.3174 11.4773 38.9654 12C38.6241 12.512 38.1334 12.9173 37.4934 13.216C36.8641 13.504 36.1174 13.648 35.2534 13.648Z" fill="white"/>
<path d="M24.9049 13.648C23.4969 13.648 22.3769 13.264 21.5449 12.496C20.7129 11.7173 20.2969 10.608 20.2969 9.168V6.48C20.2969 5.04 20.7129 3.936 21.5449 3.168C22.3769 2.38933 23.4969 2 24.9049 2C26.3129 2 27.4329 2.38933 28.2649 3.168C29.0969 3.936 29.5129 5.04 29.5129 6.48V9.168C29.5129 10.608 29.0969 11.7173 28.2649 12.496C27.4329 13.264 26.3129 13.648 24.9049 13.648ZM24.9049 11.76C25.6942 11.76 26.3075 11.5307 26.7449 11.072C27.1822 10.6133 27.4009 10 27.4009 9.232V6.416C27.4009 5.648 27.1822 5.03467 26.7449 4.576C26.3075 4.11733 25.6942 3.888 24.9049 3.888C24.1262 3.888 23.5129 4.11733 23.0649 4.576C22.6275 5.03467 22.4089 5.648 22.4089 6.416V9.232C22.4089 10 22.6275 10.6133 23.0649 11.072C23.5129 11.5307 24.1262 11.76 24.9049 11.76Z" fill="white"/>
<path d="M14.512 13.648C13.1253 13.648 12.0267 13.264 11.216 12.496C10.4053 11.7173 10 10.608 10 9.168V6.48C10 5.04 10.4053 3.936 11.216 3.168C12.0267 2.38933 13.1253 2 14.512 2C15.888 2 16.9493 2.37867 17.696 3.136C18.4533 3.88267 18.832 4.912 18.832 6.224V6.32H16.752V6.16C16.752 5.49867 16.5653 4.95467 16.192 4.528C15.8293 4.10133 15.2693 3.888 14.512 3.888C13.7653 3.888 13.1787 4.11733 12.752 4.576C12.3253 5.03467 12.112 5.65867 12.112 6.448V9.2C12.112 9.97867 12.3253 10.6027 12.752 11.072C13.1787 11.5307 13.7653 11.76 14.512 11.76C15.2693 11.76 15.8293 11.5467 16.192 11.12C16.5653 10.6827 16.752 10.1387 16.752 9.488V9.2H18.832V9.424C18.832 10.736 18.4533 11.7707 17.696 12.528C16.9493 13.2747 15.888 13.648 14.512 13.648Z" fill="white"/>
</g>
<defs>
<clipPath id="clip0_5045_287">
<rect width="99.7599" height="11.648" fill="white" transform="translate(10 2)"/>
</clipPath>
</defs>
</svg>
