<svg width="140" height="20" viewBox="0 0 140 20" fill="none" xmlns="http://www.w3.org/2000/svg">
<g clip-path="url(#clip0_5104_415)">
<path d="M20 15.984C20 18.18 18.2 19.98 16.004 19.98L4.052 19.98C1.82 19.98 0.0559971 18.18 0.0559971 15.984L0.0559977 4.032L0.0559977 3.996C0.0559978 1.8 1.856 -7.93099e-07 4.052 -6.97109e-07L16.004 -1.74671e-07C18.2 -7.86805e-08 20 1.8 20 4.032L20 15.948L20 15.984ZM15.572 4.032L1.46 4.032C1.316 4.032 1.316 4.212 1.424 4.248C2.972 4.788 4.052 6.264 4.052 7.992L4.052 15.516L4.484 15.948L18.596 15.948C18.74 15.948 18.74 15.804 18.632 15.768C17.084 15.192 15.968 13.716 15.968 11.988L15.968 4.464C15.824 4.284 15.716 4.212 15.572 4.032Z" fill="white"/>
</g>
<g clip-path="url(#clip1_5104_415)">
<path d="M117.824 15.424L116.352 4.224H118.448L119.536 13.952H119.824L121.232 4.224H124.88L126.288 13.952H126.576L127.664 4.224H129.76L128.288 15.424H124.64L123.2 5.472H122.912L121.472 15.424H117.824Z" fill="white"/>
<path d="M110.561 15.648C109.153 15.648 108.033 15.264 107.201 14.496C106.369 13.7173 105.953 12.608 105.953 11.168V8.48C105.953 7.04 106.369 5.936 107.201 5.168C108.033 4.38933 109.153 4 110.561 4C111.969 4 113.089 4.38933 113.921 5.168C114.753 5.936 115.169 7.04 115.169 8.48V11.168C115.169 12.608 114.753 13.7173 113.921 14.496C113.089 15.264 111.969 15.648 110.561 15.648ZM110.561 13.76C111.35 13.76 111.964 13.5307 112.401 13.072C112.838 12.6133 113.057 12 113.057 11.232V8.416C113.057 7.648 112.838 7.03467 112.401 6.576C111.964 6.11733 111.35 5.888 110.561 5.888C109.782 5.888 109.169 6.11733 108.721 6.576C108.284 7.03467 108.065 7.648 108.065 8.416V11.232C108.065 12 108.284 12.6133 108.721 13.072C109.169 13.5307 109.782 13.76 110.561 13.76Z" fill="white"/>
<path d="M96.0999 15.424V4.224H100.964C101.668 4.224 102.281 4.34667 102.804 4.592C103.327 4.83733 103.732 5.184 104.02 5.632C104.308 6.08 104.452 6.608 104.452 7.216V7.408C104.452 8.08 104.292 8.624 103.972 9.04C103.652 9.456 103.257 9.76 102.788 9.952V10.24C103.215 10.2613 103.545 10.4107 103.78 10.688C104.015 10.9547 104.132 11.312 104.132 11.76V15.424H102.02V12.064C102.02 11.808 101.951 11.6 101.812 11.44C101.684 11.28 101.465 11.2 101.156 11.2H98.2119V15.424H96.0999ZM98.2119 9.28H100.74C101.241 9.28 101.631 9.14667 101.908 8.88C102.196 8.60267 102.34 8.24 102.34 7.792V7.632C102.34 7.184 102.201 6.82667 101.924 6.56C101.647 6.28267 101.252 6.144 100.74 6.144H98.2119V9.28Z" fill="white"/>
<path d="M85.9905 15.424V4.224H90.8545C91.5585 4.224 92.1718 4.34667 92.6945 4.592C93.2171 4.83733 93.6225 5.184 93.9105 5.632C94.1985 6.08 94.3425 6.608 94.3425 7.216V7.408C94.3425 8.08 94.1825 8.624 93.8625 9.04C93.5425 9.456 93.1478 9.76 92.6785 9.952V10.24C93.1051 10.2613 93.4358 10.4107 93.6705 10.688C93.9051 10.9547 94.0225 11.312 94.0225 11.76V15.424H91.9105V12.064C91.9105 11.808 91.8411 11.6 91.7025 11.44C91.5745 11.28 91.3558 11.2 91.0465 11.2H88.1025V15.424H85.9905ZM88.1025 9.28H90.6305C91.1318 9.28 91.5211 9.14667 91.7985 8.88C92.0865 8.60267 92.2305 8.24 92.2305 7.792V7.632C92.2305 7.184 92.0918 6.82667 91.8145 6.56C91.5371 6.28267 91.1425 6.144 90.6305 6.144H88.1025V9.28Z" fill="white"/>
<path d="M79.5299 15.648C78.1219 15.648 77.0019 15.264 76.1699 14.496C75.3379 13.7173 74.9219 12.608 74.9219 11.168V8.48C74.9219 7.04 75.3379 5.936 76.1699 5.168C77.0019 4.38933 78.1219 4 79.5299 4C80.9379 4 82.0579 4.38933 82.8899 5.168C83.7219 5.936 84.1379 7.04 84.1379 8.48V11.168C84.1379 12.608 83.7219 13.7173 82.8899 14.496C82.0579 15.264 80.9379 15.648 79.5299 15.648ZM79.5299 13.76C80.3192 13.76 80.9325 13.5307 81.3699 13.072C81.8072 12.6133 82.0259 12 82.0259 11.232V8.416C82.0259 7.648 81.8072 7.03467 81.3699 6.576C80.9325 6.11733 80.3192 5.888 79.5299 5.888C78.7512 5.888 78.1379 6.11733 77.6899 6.576C77.2525 7.03467 77.0339 7.648 77.0339 8.416V11.232C77.0339 12 77.2525 12.6133 77.6899 13.072C78.1379 13.5307 78.7512 13.76 79.5299 13.76Z" fill="white"/>
<path d="M61.0686 15.424V4.224H64.9886L66.9246 13.984H67.2126L69.1486 4.224H73.0686V15.424H71.0206V5.776H70.7326L68.8126 15.424H65.3246L63.4046 5.776H63.1166V15.424H61.0686Z" fill="white"/>
<path d="M55.2534 15.648C54.3894 15.648 53.6267 15.4933 52.9654 15.184C52.3041 14.8747 51.7867 14.432 51.4134 13.856C51.0401 13.28 50.8534 12.5867 50.8534 11.776V11.328H52.9334V11.776C52.9334 12.448 53.1414 12.9547 53.5574 13.296C53.9734 13.6267 54.5387 13.792 55.2534 13.792C55.9787 13.792 56.5174 13.648 56.8694 13.36C57.2321 13.072 57.4134 12.704 57.4134 12.256C57.4134 11.9467 57.3227 11.696 57.1414 11.504C56.9707 11.312 56.7147 11.1573 56.3734 11.04C56.0427 10.912 55.6374 10.7947 55.1574 10.688L54.7894 10.608C54.0214 10.4373 53.3601 10.224 52.8054 9.968C52.2614 9.70133 51.8401 9.35467 51.5414 8.928C51.2534 8.50133 51.1094 7.94667 51.1094 7.264C51.1094 6.58133 51.2694 6 51.5894 5.52C51.9201 5.02933 52.3787 4.656 52.9654 4.4C53.5627 4.13333 54.2614 4 55.0614 4C55.8614 4 56.5707 4.13867 57.1894 4.416C57.8187 4.68267 58.3094 5.088 58.6614 5.632C59.0241 6.16533 59.2054 6.83733 59.2054 7.648V8.128H57.1254V7.648C57.1254 7.22133 57.0401 6.88 56.8694 6.624C56.7094 6.35733 56.4747 6.16533 56.1654 6.048C55.8561 5.92 55.4881 5.856 55.0614 5.856C54.4214 5.856 53.9467 5.97867 53.6374 6.224C53.3387 6.45867 53.1894 6.784 53.1894 7.2C53.1894 7.47733 53.2587 7.712 53.3974 7.904C53.5467 8.096 53.7654 8.256 54.0534 8.384C54.3414 8.512 54.7094 8.624 55.1574 8.72L55.5254 8.8C56.3254 8.97067 57.0187 9.18933 57.6054 9.456C58.2027 9.72267 58.6667 10.0747 58.9974 10.512C59.3281 10.9493 59.4934 11.5093 59.4934 12.192C59.4934 12.8747 59.3174 13.4773 58.9654 14C58.6241 14.512 58.1334 14.9173 57.4934 15.216C56.8641 15.504 56.1174 15.648 55.2534 15.648Z" fill="white"/>
<path d="M44.9049 15.648C43.4969 15.648 42.3769 15.264 41.5449 14.496C40.7129 13.7173 40.2969 12.608 40.2969 11.168V8.48C40.2969 7.04 40.7129 5.936 41.5449 5.168C42.3769 4.38933 43.4969 4 44.9049 4C46.3129 4 47.4329 4.38933 48.2649 5.168C49.0969 5.936 49.5129 7.04 49.5129 8.48V11.168C49.5129 12.608 49.0969 13.7173 48.2649 14.496C47.4329 15.264 46.3129 15.648 44.9049 15.648ZM44.9049 13.76C45.6942 13.76 46.3075 13.5307 46.7449 13.072C47.1822 12.6133 47.4009 12 47.4009 11.232V8.416C47.4009 7.648 47.1822 7.03467 46.7449 6.576C46.3075 6.11733 45.6942 5.888 44.9049 5.888C44.1262 5.888 43.5129 6.11733 43.0649 6.576C42.6275 7.03467 42.4089 7.648 42.4089 8.416V11.232C42.4089 12 42.6275 12.6133 43.0649 13.072C43.5129 13.5307 44.1262 13.76 44.9049 13.76Z" fill="white"/>
<path d="M34.512 15.648C33.1253 15.648 32.0267 15.264 31.216 14.496C30.4053 13.7173 30 12.608 30 11.168V8.48C30 7.04 30.4053 5.936 31.216 5.168C32.0267 4.38933 33.1253 4 34.512 4C35.888 4 36.9493 4.37867 37.696 5.136C38.4533 5.88267 38.832 6.912 38.832 8.224V8.32H36.752V8.16C36.752 7.49867 36.5653 6.95467 36.192 6.528C35.8293 6.10133 35.2693 5.888 34.512 5.888C33.7653 5.888 33.1787 6.11733 32.752 6.576C32.3253 7.03467 32.112 7.65867 32.112 8.448V11.2C32.112 11.9787 32.3253 12.6027 32.752 13.072C33.1787 13.5307 33.7653 13.76 34.512 13.76C35.2693 13.76 35.8293 13.5467 36.192 13.12C36.5653 12.6827 36.752 12.1387 36.752 11.488V11.2H38.832V11.424C38.832 12.736 38.4533 13.7707 37.696 14.528C36.9493 15.2747 35.888 15.648 34.512 15.648Z" fill="white"/>
</g>
<defs>
<clipPath id="clip0_5104_415">
<rect width="20" height="20" fill="white" transform="translate(20) rotate(90)"/>
</clipPath>
<clipPath id="clip1_5104_415">
<rect width="99.7599" height="11.648" fill="white" transform="translate(30 4)"/>
</clipPath>
</defs>
</svg>
